<svg xmlns="http://www.w3.org/2000/svg" xmlns:xlink="http://www.w3.org/1999/xlink" width="129" height="129" viewBox="0 0 129 129"><defs><clipPath id="a"><circle cx="64.5" cy="64.5" r="64.5" transform="translate(769.83 397.01)"/></clipPath></defs><g transform="translate(-957.1 -1644.672)"><circle cx="64.5" cy="64.5" r="64.5" transform="translate(957.1 1644.672)" fill="#64e5f9"/><g transform="translate(187.27 1247.662)"><g clip-path="url(#a)"><path d="M825.12,461.22c-.75-1.6-2.27-2.82-1.6-4.89.37-1.14,1.74-1.56,1.28-3.05-.56-1.82-3.39-2.01-4.09-3.78-.21-.54-.22-1.2-.66-1.58l-.73-.49c-1.44.68-3.05,1.57-3.36,3.13a4.607,4.607,0,0,0,.12,1.88,20.22,20.22,0,0,0,1.14,3.56,3.97,3.97,0,0,0-.95,5.33,7.7,7.7,0,0,0,2.96,2.18l2.16,1.11a5.939,5.939,0,0,0,1.85.7,1.953,1.953,0,0,0,1.8-.61,2.934,2.934,0,0,0,.46-1.68A3.641,3.641,0,0,0,825.12,461.22Z" fill="#fff"/><path d="M836.55,439.69c-2.28,1.09-6.43,2.77-7.49,5.22-.93,2.14.19,5.57,2.64,6.04,2.01.38,3.79-1.17,5.65-2.02a16.978,16.978,0,0,1,5.29-1.15c2.52-.27,5.05-.55,7.57-.82a1.992,1.992,0,0,1,.97.05c.74.28.9,1.23,1.22,1.95,1,2.21,3.88,2.59,6.21,3.25,6.02,1.71,10.27,6.93,15.39,10.54a4.41,4.41,0,0,0,1.68.83,4.624,4.624,0,0,0,1.53-.07A162.288,162.288,0,0,0,894,460.19c4.42-1.2,8.67-3.64,10.34-8.16a14.711,14.711,0,0,0-.29-10.29,11.151,11.151,0,0,0-3.3-4.81,10.825,10.825,0,0,0-8.63-1.69c-3.06.57-5.68,2.26-8.62,3.05s-5.92,1.44-8.93,1.95c-3.63.61-6.43,1.72-9.9.3-5.58-2.28-10.76-5.81-16.73-6.67a1.78,1.78,0,0,0-.69,0,1.728,1.728,0,0,0-.61.36c-3.67,2.83-7.38,6.08-11.8,7.67" fill="#fff"/><path d="M836.78,449.56a8.153,8.153,0,0,1-2.04,3.3c-1.09,1.08-2.47,1.84-3.49,2.98a6.709,6.709,0,0,0-1.61,5.32,1.724,1.724,0,0,0,.21.71,2.284,2.284,0,0,0,.97.79,82.935,82.935,0,0,0,8.88,4.1c-.17-.04-.34-.07-.51-.11a2.585,2.585,0,0,0,1.95-2.92,6.637,6.637,0,0,0-2.09-2.98c-.71-.69-1.42-1.39-2.13-2.08a5.267,5.267,0,0,0,2.68-1.61,1.048,1.048,0,0,0,.29-.51,1.174,1.174,0,0,0-.15-.63c-.78-1.68-1.55-3.36-2.33-5.04Z" fill="#fff"/><path d="M835.57,465.91a4.463,4.463,0,0,0,.82,4.99,13.086,13.086,0,0,0,4.49,2.93,2.238,2.238,0,0,0,2.08.23,2.005,2.005,0,0,0,.55-2.13,15.132,15.132,0,0,0-1.3-3.55c-.45-.96-1.1-2.04-2.16-2.13-.94-.08-2,.66-2.74.08Z" fill="#fff"/><path d="M838.78,461.21c-.73-1.06-.05-2.6,1.02-3.3a9.777,9.777,0,0,1,3.68-1.05,17.993,17.993,0,0,0,5.96-2.27c.99-.59,4.05-4.06,4.68-3.88a4.489,4.489,0,0,1,1.34.93c1.61,1.21,3.89.71,5.83,1.23a8.687,8.687,0,0,1,2.56,1.42c7.34,5.14,13.42,11.81,19.42,18.4,1.62,1.79,3.25,3.57,4.87,5.36,2.26,2.48,4.49,5.19,3.46,8.65-1.43,4.78-4.99,8.63-8.76,11.9-6.44,5.58-13.56,9.81-22.08,10.48-2.14.17-4.59.18-6.09-1.36a7.37,7.37,0,0,1-1.3-2.11,115.289,115.289,0,0,1-5.88-13.85c-1.02-3.13-1.76-6.34-2.76-9.48a61.864,61.864,0,0,0-5.74-12.81Z" fill="#fff"/><path d="M836.3,448.93c.91,2.37,1.92,4.7,3.01,6.99.4.83.91,1.74,1.81,1.96a3.75,3.75,0,0,0,2.42-.66c1.72-.86,3.63-1.29,5.42-2.01a7.874,7.874,0,0,0,4.37-3.58,1.652,1.652,0,0,0,.21-.99,2.023,2.023,0,0,0-.35-.76c-.43-.68-.86-1.37-1.29-2.05a1.74,1.74,0,0,0-.34-.42,1.529,1.529,0,0,0-.69-.23,16.83,16.83,0,0,0-7.9.8Z" fill="#77f"/><path d="M815.57,434.65c-1.62.58-3.25,1.17-4.87,1.75a1.607,1.607,0,0,0-.92.61,1.536,1.536,0,0,0,.04,1.17c.36,1.19.71,2.38,1.07,3.58a19.727,19.727,0,0,0,5.84.33,2.112,2.112,0,0,0,2.46,1.75,28.254,28.254,0,0,0,1.37,5.02,2.968,2.968,0,0,0,.78,1.3,4.682,4.682,0,0,0,1.24.58,3.6,3.6,0,0,1,2.28,2.98,2.574,2.574,0,0,1-2.3,2.7,27.6,27.6,0,0,1,3.22,8.29c.36,1.34.72,2.67,1.08,4.01.27,1,.89,2.24,1.91,2.07.9-.15,1.19-1.29,1.25-2.19a41.035,41.035,0,0,0-1.19-13.06c-.34-1.31-.73-2.72-.2-3.96.16-.37.4-.71.54-1.09.46-1.24-.19-2.6-.11-3.92a4.962,4.962,0,0,1,2.37-3.62,22.031,22.031,0,0,1,4.07-1.86,30.279,30.279,0,0,0,11.77-8.58c1.65-1.98,3.1-4.3,3.24-6.88-2.68.82-5.55.6-8.36.59a56.668,56.668,0,0,0-26.95,6.69Z" fill="#77f"/><path d="M836.69,449.29c.27.66.54,1.33.82,1.99a2.267,2.267,0,0,0,.95,1.28,2.15,2.15,0,0,0,1.01.11,15.469,15.469,0,0,1,4.61.09,4.334,4.334,0,0,1,3.34,2.87.533.533,0,0,0,.19.36c.15.1.35.02.51-.07a37.1,37.1,0,0,0,4.46-2.75,3.434,3.434,0,0,0,1.77-2.46,3.491,3.491,0,0,0-.6-1.71c-.27-.48-.54-.97-.81-1.45a1.32,1.32,0,0,0-1.41-.96c-4.09-.04-8.3-.05-12.12,1.43Z" fill="#6363eb"/><path d="M828.47,470.96a28.889,28.889,0,0,0-2.3-13.37,35.318,35.318,0,0,1-1.84-4.47c-.41-1.53-.48-3.14-.9-4.67a5.257,5.257,0,0,0-2.78-3.65c-.77-.31-1.75-.43-2.09-1.18a49.094,49.094,0,0,0,12.16-.82,8.2,8.2,0,0,0-2.24,2.19,2.817,2.817,0,0,0-.1,2.98c.57.83,1.54,1.22,2.1,2.07-3.21.92-2.57,6.19-2.15,8.62.7,4.01,1.76,7.91.94,12.01Z" fill="#6363eb"/><path d="M810.72,439.35c1.27-.31,2.54-.62,3.82-.92a4.662,4.662,0,0,0,2.08-.88,1.6,1.6,0,0,0,.39-2.04c.82-.15,1.64-.31,2.46-.46a9.623,9.623,0,0,1,2.39,5.29c-.28-2.41,3.69-6.5,5.58-7.46a58.844,58.844,0,0,1,10.71-3.83,23.656,23.656,0,0,1,10.99-.55c-.12,1.94-2.57,3.62-3.72,5.07a25.841,25.841,0,0,1-5.6,5.4c-5.89,4.03-13.44,4.55-20.57,4.55a3,3,0,0,1-1.49-.26c-.35-.2-.61-.53-.95-.76a3.714,3.714,0,0,0-1.43-.47c-1.51-.28-3.02-.56-4.54-.84Z" fill="#6363eb"/><path d="M845.7,433.91c.77,1.42,2.77,2.05,3.07,3.63a2.606,2.606,0,0,1-.92,2.34,6.08,6.08,0,0,1-2.32,1.18c-3.95,1.27-8.18,1.39-12.33,1.42q3.12-1.32,6.18-2.8c2.22-1.08,4.62-2.47,5.29-4.85Z" fill="#e1e1ff"/><path d="M830.02,450.67a3.19,3.19,0,0,0,3.53-2.57c.17-1.13-.07-2.68,1.01-3.06a2.287,2.287,0,0,1,1.16.03c6.91,1.23,13.78-4,20.68-2.69,5.11.97,9.05,5.34,14.14,6.38a20.538,20.538,0,0,0,7.41-.22,131.536,131.536,0,0,0,19.9-5.04,5.157,5.157,0,0,1,2.78-.39c1.59.37,2.42,2.07,2.98,3.6a63.135,63.135,0,0,1,2.71,9.72,172.579,172.579,0,0,1-31.67,7.14c-.82.17-5.77-5.18-6.64-5.91-2-1.66-3.98-2.91-5.59-4.95a1.643,1.643,0,0,0-.46-.45,1.694,1.694,0,0,0-.84-.13,25.03,25.03,0,0,1-4.15-.28,7.032,7.032,0,0,1-3.64-1.41,4.169,4.169,0,0,1-1.32-3.84c-4.2.6-8.39,1.17-12.61,1.65a8.391,8.391,0,0,0-4.21,1.28c-1.21.92-2.49,2.6-3.81,1.86Z" fill="#e1e1ff"/><path d="M836.48,451.32c-.35,1.96-2.06,3.34-3.16,5a2.72,2.72,0,0,0-.47,1.04,2.214,2.214,0,0,0,.69,1.88,5.6,5.6,0,0,0,1.76,1.09,4.955,4.955,0,0,1,1.38.79,1.456,1.456,0,0,1,.47,1.44c-.27.82-1.36.97-2.22.97h-1.49a8.424,8.424,0,0,0,3.8,2.49,3.011,3.011,0,0,0,2.92-.29,2.3,2.3,0,0,0,.65-1.14,4.072,4.072,0,0,0-1.03-3.72,6.137,6.137,0,0,0-3.53-1.78,6.127,6.127,0,0,1,2.54-1.77c.5-.18,1.12-.4,1.21-.93a1.394,1.394,0,0,0-.13-.69,37.459,37.459,0,0,0-3.23-6.38Z" fill="#e1e1ff"/><path d="M835.78,468.95a5.064,5.064,0,0,0,2.76,3.22.56.56,0,0,0,.53.04.522.522,0,0,0,.19-.3,3.306,3.306,0,0,0-.84-2.76,5.067,5.067,0,0,1-1.3-2.64c.61-.01,1.21-.01,1.82-.02a1.122,1.122,0,0,1,.55.09,1.138,1.138,0,0,1,.3.28,20.706,20.706,0,0,1,2.18,3.3,5.156,5.156,0,0,1,.73,2.23,2.056,2.056,0,0,1-1.08,1.95,1.32,1.32,0,0,1-1.82-.9Z" fill="#e1e1ff"/><path d="M816.6,452.26a1.619,1.619,0,0,0,.85,1.51,3.2,3.2,0,0,0,1.78.34,2.778,2.778,0,0,0,2.14-.94,1.354,1.354,0,0,0-.44-2.03c-.05-.37.55-.33.86-.13a7.669,7.669,0,0,1,1.99,1.58,2.321,2.321,0,0,1-1.2,3.93,7.863,7.863,0,0,1-2.42.21c-.68-.01-1.58-.23-1.6-.91Z" fill="#e1e1ff"/><path d="M816.83,456.53c-.84.78-.33,2.27.59,2.96a22.664,22.664,0,0,0,3.12,1.44c1.01.54,1.89,1.71,1.47,2.78-.18.44-.57.86-.45,1.32a2.122,2.122,0,0,0,2.24-.18,6.309,6.309,0,0,0,1.57-1.76,1.733,1.733,0,0,0,.41-.99,1.655,1.655,0,0,0-.38-.88,16.4,16.4,0,0,0-5.4-4.16c-.21-.12-.41-.23-.62-.35-.8-.45-1.6-.91-2.4-1.36Z" fill="#e1e1ff"/><path d="M847.43,455.81c.77.85,1.53,1.71,2.3,2.56,2.95,3.29,5.9,6.58,8.58,10.09a82.7,82.7,0,0,1,11.56,20.89c1.7,4.51,2.93,9.78.54,13.97-.88,1.54-2.21,2.82-2.93,4.44,6.94-1.8,12.38-7.05,17.48-12.09a23.339,23.339,0,0,0,5.09-6.39,2.567,2.567,0,0,0,.32-1.26,2.93,2.93,0,0,0-.95-1.67c-8.2-9-16.45-17.99-23.71-27.77a9.112,9.112,0,0,1-1.55-2.7,10.834,10.834,0,0,0-.46-1.57c-.78-1.62-2.94-1.89-4.73-1.96s-3.96-.38-4.69-2.03a11.984,11.984,0,0,1-5.5,4.82Z" fill="#e1e1ff"/><path d="M845.29,457.09a4.019,4.019,0,0,0-1.43,3.78,12.049,12.049,0,0,0,1.46,3.97,306.253,306.253,0,0,1,15.15,35.48c1.17,3.32,2.7,7.08,6.05,8.18l-8.3-.12a2.476,2.476,0,0,1-1.29-.26,2.135,2.135,0,0,1-.76-1.03c-1-2.2-1.25-4.65-1.76-7.01a67.458,67.458,0,0,0-3-9.39q-3.72-9.9-7.43-19.81a5.045,5.045,0,0,0-1.04-1.9c-.49-.49-1.19-.8-1.52-1.41a3.5,3.5,0,0,1-.28-1.51,9.264,9.264,0,0,0-1.45-4.35,6.894,6.894,0,0,1-1.31-2.44c-.16-.92.44-2.06,1.37-2.01a5.2,5.2,0,0,0,.87.12c.29-.02.6-.31.47-.58s-.63.11-.37.24Z" fill="#e1e1ff"/><path d="M807.32,437.69c-13.9,2.69-28.54-.27-42.27,3.2-3.43,8.76-4.15,19.28,1.03,27.14,1.38,2.09,3.14,3.95,4.19,6.23q18.39-13.38,36.77-26.76a15.166,15.166,0,0,0,3.79-3.48,5.093,5.093,0,0,0,.68-4.89c-.73-1.56-2.87-2.45-4.3-1.49Z" fill="#fff" opacity="0.36"/><path d="M897.79,457.94a94.766,94.766,0,0,1-11.7,3.37c-1.99.41-3.99.74-6,1.02-1.11.16-2.21.29-3.33.4a8.247,8.247,0,0,0-1.57.22,57.245,57.245,0,0,0-12.18-9.56,1.809,1.809,0,0,0,.93-.5.4.4,0,0,0-.17-.65,3.8,3.8,0,0,0-1.61.03,10.888,10.888,0,0,1-1.51.05,10.181,10.181,0,0,1-3.08-.63,9.051,9.051,0,0,1-4.29-3.49.488.488,0,0,0,.01-.24c-.37-1.67-2.11-1.97-3.57-1.8-2.26.27-4.51.69-6.76,1.03-2.12.33-4.54.41-6.53,1.26-1.6.69-3.22,2.55-5.09,2.2-1.99-.38-2.65-2.83-2-4.51.76-1.95,2.66-3.15,4.49-3.95,1.92-.84,3.96-1.38,5.8-2.38a26.145,26.145,0,0,0,4.72-3.37.235.235,0,0,0,.08-.24c.06-.05.13-.1.19-.16a13.281,13.281,0,0,0,1.14-1.23c.4-.46.8-.93,1.19-1.39,3.12,1.4,6.46,2.38,9.64,3.66a79.562,79.562,0,0,1,10.16,4.97.474.474,0,0,0,.56-.04,6.486,6.486,0,0,0,3.16-.08c1.63-.25,3.25-.57,4.88-.89,1.56-.3,3.12-.6,4.66-.99a18.69,18.69,0,0,0,4.48-1.41c.37-.21.23-.9-.23-.84a36.989,36.989,0,0,0-4.23,1.09c-1.43.35-2.87.64-4.32.91-1.51.28-3.03.53-4.53.85-.73.16-1.47.35-2.21.46-.53.08-1.11-.02-1.64.05-.02-.01-.02-.03-.04-.04a81.046,81.046,0,0,0-9.92-4.82,52.374,52.374,0,0,0-10.08-3.3c.27-.33.54-.65.8-.99a12.674,12.674,0,0,0,1.74-2.83,6.522,6.522,0,0,0,.46-1.62,3.3,3.3,0,0,0-.01-1.29.311.311,0,0,0-.14-.31.524.524,0,0,0-.72-.15,53.883,53.883,0,0,0-9.16.11,87.192,87.192,0,0,0-9.27,1.13,76.912,76.912,0,0,0-8.98,2.09,17.364,17.364,0,0,0-6.88,3.6.2.2,0,0,0-.24.2,12.81,12.81,0,0,0,.08,1.39,6.589,6.589,0,0,0-1.31.47c-.53.22-1.06.46-1.58.7-.55.26-1.09.52-1.63.8a1.293,1.293,0,0,0-.81,1.13,7.246,7.246,0,0,0,.35,1.65c.14.61.29,1.22.43,1.83a1.341,1.341,0,0,0,.97,1.13h.02c-7.72,6.87-15.7,13.42-23.64,20.02-.09.08.03.25.13.17,8.35-6.12,16.29-12.82,24.07-19.64a.336.336,0,0,0,.09-.41c.35.06.7.1,1.04.14a13.732,13.732,0,0,0,2.03.06,7.928,7.928,0,0,0,1.66-.17c.09.32.16.64.26.95a1.437,1.437,0,0,0,1.26,1.13,16.673,16.673,0,0,1,.97,2.7c-1.32.89-2.84,1.7-3.45,3.26a5.208,5.208,0,0,0,.74,4.72,5.075,5.075,0,0,0-1.37,4.55,4.953,4.953,0,0,0,1.06,2.34,6.859,6.859,0,0,0,2.47,1.71c.48.23.97.46,1.44.73s.87.61,1.31.9a2.674,2.674,0,0,0,2.68.31,2.8,2.8,0,0,0,.95-.73,24.728,24.728,0,0,0,.94,3.2,8.148,8.148,0,0,0,1.06,2.83,1.563,1.563,0,0,0,2.12.38,2.841,2.841,0,0,0,1.01-2.58c0-2.08-.07-4.17-.23-6.24.04.06.06.12.1.17a4.971,4.971,0,0,0,1.32,1.05c.63.4,1.27.8,1.91,1.18.49.29,1,.57,1.51.83a2.273,2.273,0,0,1,.02.26c0,.43-.07.86-.09,1.29a5.292,5.292,0,0,0,.4,2.39,8.731,8.731,0,0,0,3.29,3.78A6.875,6.875,0,0,0,842,474.8c1.96,6.69,4.18,13.3,6.32,19.93a95.662,95.662,0,0,0,3.09,9.06c1.05,2.39,2.66,4.72,5.18,5.71,2.58,1.01,5.64.58,8.26-.04a35.407,35.407,0,0,0,8.54-3.48,50.854,50.854,0,0,0,13.93-11.08c3.41-3.86,6.98-9.54,3.44-14.26a.478.478,0,0,0-.09-.21,48.77,48.77,0,0,0-3.18-3.72l-3.21-3.75c-2.18-2.54-4.37-5.07-6.66-7.51-.56-.6-1.13-1.19-1.71-1.78.35,0,.71-.03,1.07-.05,1.08-.06,2.17-.14,3.25-.25,1.93-.19,3.84-.5,5.74-.87a62.844,62.844,0,0,0,12.1-3.53C898.68,458.71,898.45,457.71,897.79,457.94Zm-41.56-5.48a4.027,4.027,0,0,0-1.1.92c-.58.54-1.18,1.06-1.81,1.54a24.786,24.786,0,0,1-4.37,2.69,18.637,18.637,0,0,1-4.75,1.56,14.9,14.9,0,0,1-2.41.23,5.492,5.492,0,0,1-1.34-.08,1.586,1.586,0,0,1-1-.75.318.318,0,0,0,.06-.31c.04-.02.09-.04.13-.06l.45-.21a.549.549,0,0,0,.17-.13.562.562,0,0,0,.48-.22,4.81,4.81,0,0,0,1,.18,9.479,9.479,0,0,0,2.32-.01,13.321,13.321,0,0,0,4.49-1.51,20.356,20.356,0,0,0,3.77-2.46c.71-.61,1.91-1.78,1.91-2.87A8.831,8.831,0,0,0,856.23,452.46Zm-17.73,7c-.25-.13-.5-.25-.76-.36a2.554,2.554,0,0,1,.24-.11c.2-.09.39-.18.59-.27a1.346,1.346,0,0,0-.09.53A.532.532,0,0,0,838.5,459.46Zm6.93-11.37c1.11-.17,2.22-.33,3.34-.5a4.577,4.577,0,0,1,2.84.06c.02.13.04.26.07.39a2.378,2.378,0,0,0,.22.49c.13.29.27.57.41.86s.27.57.41.86c.1.21.2.42.31.63-.14.24-.26.51-.41.75a6.493,6.493,0,0,1-1.28,1.39,18.6,18.6,0,0,1-3.41,2.21,16.346,16.346,0,0,1-3.89,1.48,8.318,8.318,0,0,1-2.11.22c-.36-.01-.83-.12-1.24-.11-.59-1.28-1.15-2.57-1.72-3.85-.3-.67-.58-1.35-.91-2-.23-.46-.47-.97-.75-1.43a7.694,7.694,0,0,1,1.52-.44C841.01,448.71,843.22,448.42,845.43,448.09Zm3.7-21.5c0,.31.03.62,0,.92a5.847,5.847,0,0,1-.43,1.48,13.038,13.038,0,0,1-1.63,2.64c-.65.86-1.29,1.72-1.93,2.59-.53.72-1.12,1.39-1.67,2.09a38.136,38.136,0,0,1-8.9,4.37,22.537,22.537,0,0,0-2.26,1c-3.32.3-6.59.9-9.9,1.21a23.081,23.081,0,0,0-.57-2.46c1.19-4.05,4.63-7.33,8.18-9.38a31.777,31.777,0,0,1,6.68-2.79c2.05-.62,4.18-1.01,6.23-1.62C845,426.61,847.06,426.65,849.13,426.59Zm-29.51,16.5c-.06-.21-.13-.42-.19-.62-.14-.49-.27-.99-.42-1.48-.29-1.02-.57-2.04-.89-3.05-.31-.98-.65-1.94-.98-2.91-.15-.45-.3-.9-.49-1.33a3.155,3.155,0,0,0-.46-.87,15.3,15.3,0,0,1,1.9-1.16c.59,2.01,1.26,3.99,1.94,5.98a38,38,0,0,1,1.53,5.32c-.39.03-.77.06-1.16.08C820.14,443.05,819.88,443.07,819.62,443.09Zm3.42-13.32a82.386,82.386,0,0,1,8.64-1.96q3.585-.615,7.22-.93c-.95.25-1.89.52-2.8.8a30.8,30.8,0,0,0-7.07,3.06,20.24,20.24,0,0,0-5.04,4.27,12.07,12.07,0,0,0-2.5,4.33c-.21-.64-.42-1.29-.64-1.93-.69-2.03-1.38-4.05-2.16-6.05A29.839,29.839,0,0,1,823.04,429.77Zm-7.11,11.36q-.465.06-.93.09a14.248,14.248,0,0,1-1.96-.02c-.31-.03-.62-.06-.93-.11-.09-.01-.19-.02-.29-.04a6,6,0,0,0-.15-1.74,5.2,5.2,0,0,0-1.01-2.02,2.166,2.166,0,0,1,.61-.37c.27-.15.55-.3.83-.44q.825-.435,1.68-.84c.4-.19.88-.36,1.28-.59a43.686,43.686,0,0,0,1.07,4.63c.12.45.23.91.34,1.36C816.29,441.07,816.11,441.11,815.93,441.13Zm1.14-2.07a43.4,43.4,0,0,1-1.66-5.68.2.2,0,0,0,.09-.05c.09-.07.19-.14.28-.21a3.893,3.893,0,0,0,.1.54,13.015,13.015,0,0,0,.38,1.49c.3,1.02.57,2.04.87,3.06.28.98.59,1.96.88,2.94.14.49.28.98.42,1.48l.09.36c-.33-.16-.38-.48-.53-.97C817.68,441.03,817.38,440.04,817.07,439.06Zm-.18,11.66c.44-1.21,1.71-1.91,2.76-2.59a9.628,9.628,0,0,0,.53,1.24,6.385,6.385,0,0,0,.43.71,11.625,11.625,0,0,0-1.67.13c-.46.07-.34.81.11.8,1.64-.05,3.63.16,4.73,1.53a2.05,2.05,0,0,1-.95,3.4,14.2,14.2,0,0,1-2.69.18,3.026,3.026,0,0,1-1.2-.01c-.33-.15-.64-.71-.86-.99C817.12,453.88,816.32,452.33,816.89,450.72Zm6.02,6.41c.1.34.22.68.35,1.02.06.16.11.32.17.48a15.636,15.636,0,0,0-2.45-1.33A12.365,12.365,0,0,0,822.91,457.13Zm1.28,7.11a1.584,1.584,0,0,1-2.09.08,21.891,21.891,0,0,0-2.16-1.37c-1.42-.71-2.93-1.35-3.47-2.98a4.135,4.135,0,0,1,.75-4.05,4.718,4.718,0,0,0,1,1.13,2.2,2.2,0,0,0,1.38.27c1.32.97,2.91,1.53,4.09,2.71C824.79,461.14,825.53,463,824.19,464.24Zm3.73,6.11c-.4-.26-.54-1.07-.67-1.49-.19-.62-.37-1.23-.56-1.85a12.9,12.9,0,0,0-1.06-3.02,3.726,3.726,0,0,0-.21-3.28,5.522,5.522,0,0,0-1.09-1.35c0-.03.02-.06.01-.09-.11-.44-.21-.88-.32-1.32-.09-.36-.17-.72-.28-1.07a3.2,3.2,0,0,0,1.42-4.3,4.493,4.493,0,0,0-2.38-2.12,5.049,5.049,0,0,0-1.26-.31,4.4,4.4,0,0,0-.26-.39,6.4,6.4,0,0,1-.43-.82,11.84,11.84,0,0,1-.55-1.75,18.294,18.294,0,0,0-.87-2.84,49.972,49.972,0,0,0,6.12-.48c1.5-.18,2.99-.39,4.48-.64a6.59,6.59,0,0,0-1.82,2.62,4.946,4.946,0,0,0,.7,4.6c-1.26,1.06-1.26,2.84-.96,4.42a67.236,67.236,0,0,1,1.1,7.86c.09,1.25.15,2.5.19,3.75C829.26,467.13,829.65,471.47,827.92,470.35Zm3.76-8.15c-.75-.51-.76-1.16-.78-2a5.964,5.964,0,0,1,.72-3.62c1.23-1.88,3.65-2.66,4.69-4.68.17-.33-.2-.82-.56-.56-.89.65-1.74,1.35-2.61,2.02a12.445,12.445,0,0,0-2.4,2.24,5.951,5.951,0,0,0-1.12,3.01c-.15-1.09-.33-2.17-.56-3.25-.3-1.38-.74-3.24.52-4.24a3.687,3.687,0,0,0,1.08.61,4.433,4.433,0,0,0,3.54-.55c.91-.5,1.71-1.01,2.58-1.42.07.18.15.37.22.55.14.36.26.73.41,1.09.27.68.56,1.36.83,2.04q.7,1.77,1.44,3.54a3.965,3.965,0,0,0-.57.32c-.26.16-.53.31-.79.47s-.53.31-.79.47a1.194,1.194,0,0,0-.45.35c-.05.07-.09.14-.14.21-.38-.14-.75-.26-1.12-.38-.22-.07-.37.27-.16.37a10.733,10.733,0,0,1,3.54,2.27,4.38,4.38,0,0,1,.29,4.9.38.38,0,0,1-.05.08c-.16-.04-.31-.07-.47-.11a14.637,14.637,0,0,1-1.73-.58,26.135,26.135,0,0,1-3.81-2.01C832.85,462.95,832.25,462.59,831.68,462.2Zm7.28,9.84a7.159,7.159,0,0,1-2.81-3.06,5.954,5.954,0,0,1-.37-2.37c0-.17,0-.37-.01-.58.38.18.76.37,1.15.52.75.3,2.23,1.03,3.1.63l.11.14c.24.29.47.6.69.91a16.442,16.442,0,0,1,1.16,1.93c.33.64,1.52,2.68.47,3.21a2.049,2.049,0,0,1-1.61-.24A15.876,15.876,0,0,1,838.96,472.04Zm44.39,1.56q1.605,1.89,3.19,3.77c.98,1.15,1.93,2.42,3.02,3.47,3.77,4.46-.19,10.01-3.35,13.54a49.719,49.719,0,0,1-12.33,9.99,39.3,39.3,0,0,1-7.85,3.55c-2.59.8-5.73,1.46-8.41.71-2.84-.8-4.51-3.39-5.57-5.97-1.1-2.66-1.88-5.46-2.78-8.19-2.18-6.6-4.29-13.22-6.65-19.75a1.106,1.106,0,0,0,.26-.07c1.77-.7,1.37-2.76.78-4.14a17.559,17.559,0,0,0-1.39-2.6c-.27-.42-.57-.82-.87-1.22a3.519,3.519,0,0,0-.57-.63c.08-.21.15-.41.22-.59a5.265,5.265,0,0,0,.39-1.92,4.221,4.221,0,0,0-1.81-3.37.417.417,0,0,0-.01-.27,3.383,3.383,0,0,0,1.12.34,13.824,13.824,0,0,0,6.11-.75,23.157,23.157,0,0,0,5.88-2.95,26.727,26.727,0,0,0,2.39-1.85c.54-.47,1.59-1.17,1.69-1.95.07.03.14.07.21.1a9.532,9.532,0,0,0,3.49.78,10.14,10.14,0,0,0,1.65-.08A84.347,84.347,0,0,1,877,466.37C879.18,468.71,881.28,471.15,883.35,473.6Z" fill="#372b7b"/><path d="M799.65,438.25a59.58,59.58,0,0,0,6.95-.35c.23-.04.14-.35-.05-.37a58.988,58.988,0,0,0-7.4.11c-2.47.06-4.93.1-7.4.21a122.139,122.139,0,0,0-14.31,1.01l.02.12c4.88.26,9.9-.17,14.79-.37C794.72,438.51,797.18,438.36,799.65,438.25Z" fill="#372b7b"/></g></g></g></svg>