<svg xmlns="http://www.w3.org/2000/svg" width="318" height="461" viewBox="0 0 318 461">
  <g id="Group_104" data-name="Group 104" transform="translate(-812 -1969)">
    <ellipse id="Ellipse_59" data-name="Ellipse 59" cx="88.5" cy="14.5" rx="88.5" ry="14.5" transform="translate(953 2401)" fill="#8b84ab" opacity="0.21"/>
    <g id="doctor" transform="translate(429.306 1846.649)">
      <g id="Group_81" data-name="Group 81" transform="translate(469.67 242.607)">
        <g id="Group_80" data-name="Group 80">
          <path id="Path_535" data-name="Path 535" d="M495.28,256.51s-3.391-6.9-3.944-7.94-3.8-2.69-7.643-3.6c-3.742-.89-8.834-2.66-9.408-2.32a3.2,3.2,0,0,0-1.956,1.91,5.955,5.955,0,0,0-.393,3.16,3.724,3.724,0,0,0-1.254,3.49,3.2,3.2,0,0,0-.617,3.66s-1.531,1.48-.659,3.01a26.4,26.4,0,0,1,3.933,2.5c.925.9,7.42,3.83,14.107,5.74C487.446,266.12,494.419,265.91,495.28,256.51Z" transform="translate(-469.138 -242.607)" fill="#f29792"/>
        </g>
      </g>
      <g id="Group_83" data-name="Group 83" transform="translate(487.978 253.5)">
        <g id="Group_82" data-name="Group 82">
          <path id="Path_536" data-name="Path 536" d="M486.36,266.12s8.292,1.36,11.109-.16-.457-9.47-.457-9.47l-5.251-2.99Z" transform="translate(-486.36 -253.5)" fill="#f29792"/>
        </g>
      </g>
      <g id="Group_85" data-name="Group 85" transform="translate(477.996 253.16)">
        <g id="Group_84" data-name="Group 84">
          <path id="Path_537" data-name="Path 537" d="M483.88,253.16s.128,3.82.744,4.87-7.654,2.7-7.654,2.7S478.947,253.43,483.88,253.16Z" transform="translate(-476.97 -253.16)" fill="#ec4e66"/>
        </g>
      </g>
      <g id="Group_87" data-name="Group 87" transform="translate(469.576 242.6)">
        <g id="Group_86" data-name="Group 86">
          <path id="Path_538" data-name="Path 538" d="M475.333,242.98s9.057,4.14,8.526,5.59a2.529,2.529,0,0,1-1.658,1.69l2.9,3.29s.617,3.2-3.274,2.9c0,0,.9,2.94-2.817,2.22,0,0-.319,2.19-2.1,2.14s-7.494-2.94-7.494-2.94-1.084-1.18.5-3.07a3.113,3.113,0,0,1,.627-3.64,5.087,5.087,0,0,1,1.339-4.38,4.476,4.476,0,0,1,2.488-4.18S474.95,242.8,475.333,242.98Z" transform="translate(-469.049 -242.6)" fill="#ec4e66"/>
        </g>
      </g>
      <g id="Group_89" data-name="Group 89" transform="translate(479.418 248.41)">
        <g id="Group_88" data-name="Group 88">
          <path id="Path_539" data-name="Path 539" d="M490.493,248.41s-6.91.14-10.641,1.77c-.85.37-1.595.87-1.541,1.75s1.456,1.93,4.454,2.01a26.383,26.383,0,0,1,6.825,1.48S492.683,254.67,490.493,248.41Z" transform="translate(-478.307 -248.41)" fill="#f29792"/>
        </g>
      </g>
      <g id="Group_90" data-name="Group 90" transform="translate(472.23 242.602)">
        <path id="Path_540" data-name="Path 540" d="M471.784,246.8s10.28,3.31,10.981,4.12,2.03-2.75,1.382-3.39a78.376,78.376,0,0,0-9.589-4.91C473.676,242.39,470.689,244.36,471.784,246.8Z" transform="translate(-471.546 -242.602)" fill="#f29792"/>
      </g>
      <g id="Group_91" data-name="Group 91" transform="translate(460.694 241.177)">
        <path id="Path_541" data-name="Path 541" d="M477.167,243.02s-16.105-3.1-16.435-1.26,1.233,2.16,14.425,5.78C488,251.06,477.167,243.02,477.167,243.02Z" transform="translate(-460.694 -241.177)" fill="#f29792"/>
      </g>
      <g id="Group_92" data-name="Group 92" transform="translate(561.147 552.363)">
        <path id="Path_542" data-name="Path 542" d="M581.862,553.68s-5.135,7.22-12.331,8.78-14.287,4.04-14.34,8.31,20.814,6.82,29.053,2.51c12.289-6.43,13.543-4.49,14.9-7.7s-1.637-11.81-1.552-12.83C597.712,551.5,581.862,553.68,581.862,553.68Z" transform="translate(-555.19 -552.363)" fill="#1f355b"/>
      </g>
      <g id="Group_93" data-name="Group 93" transform="translate(587.805 548.02)">
        <path id="Path_543" data-name="Path 543" d="M581.078,550.12a29.563,29.563,0,0,0-.8,3.56c.138.07,16.222,1.88,15.733-.92-.393-2.27-.957-4.74-.957-4.74Z" transform="translate(-580.267 -548.02)" fill="#9e9efb"/>
      </g>
      <g id="Group_94" data-name="Group 94" transform="translate(620.091 551.415)">
        <path id="Path_544" data-name="Path 544" d="M632.486,553.21s-3.657,6.91-9.918,9.26c-6.687,2.52-12.044,5.41-11.927,9.57s16.339,8.38,28.139.39c7.452-5.05,9.823-5.07,11.013-8.25s-2.073-11.44-2.03-12.44C647.836,550.5,632.486,553.21,632.486,553.21Z" transform="translate(-610.638 -551.415)" fill="#1f355b"/>
      </g>
      <g id="Group_95" data-name="Group 95" transform="translate(641.758 546.94)">
        <path id="Path_545" data-name="Path 545" d="M631.02,549.62a32.041,32.041,0,0,0,.181,3.59c.138.07,15.68,1.27,15.287-1.47a21.075,21.075,0,0,0-1.51-4.8Z" transform="translate(-631.02 -546.94)" fill="#9e9efb"/>
      </g>
      <g id="Group_96" data-name="Group 96" transform="translate(562.923 322.525)">
        <path id="Path_546" data-name="Path 546" d="M578.706,338.58s-14.436,59.92-17.742,78.17c-2.806,15.53-5.049,31.71-3.7,42.92,1.669,13.88,22.558,85.84,21.686,89.91s24.907,1.59,24.907,1.59-18.933-81.21-15.765-96.14c2.349-11.06,22.951-84.56,26.108-80.79s7.069,69.36,9.408,80.25,9.514,96.92,9.514,96.92,16.041,2.23,20.336-1.18c0,0,1.956-73.46.457-93.88-.563-7.78,9.695-93.28-3.466-127.7C643.509,310.46,578.706,338.58,578.706,338.58Z" transform="translate(-556.861 -322.525)" fill="#816ddc"/>
      </g>
      <g id="Group_97" data-name="Group 97" transform="translate(490.466 203.491)">
        <path id="Path_547" data-name="Path 547" d="M488.7,269.07s50.027,10.43,59.977,8.13c4.6-1.06,10.662-7.04,16.424-14.07,1.9-2.31,3.763-4.74,5.528-7.14v-.01c7.069-9.6,12.608-18.8,12.608-18.8s20.889-23.03,4.125-33.29c0,0-6.081-2.14-11.672,3.49s-12.151,17.41-13.618,20.42-21.984,30.84-23.047,31.47S529,257.68,521.8,257.12c-11.725-.92-29.287-5.21-29.287-5.21Z" transform="translate(-488.7 -203.491)" fill="#fff"/>
      </g>
      <path id="Path_548" data-name="Path 548" d="M598.169,198.76s-21.505,4.18-24.057,6.31c-2.775,2.26-7.654,24.42-7.941,30.59s2.594,31.95,5.358,41.55,2.264,56.88.51,70.18c0,0,43.3,11.57,85.862,6.36,0,0-7.133-49.74-5.432-62.9,2.179-16.85,7.431-55.68,7.431-55.68s-3.774-27.05-7.558-30.06-29.9-6.35-29.9-6.35H598.169Z" transform="translate(6.648 0)" fill="#bcc0cf"/>
      <path id="Path_549" data-name="Path 549" d="M606.072,136.21s-25.864-9-24.248,23.33,7.675,35.62,24.694,31.1,18.444-24.92,20.655-34.74S614.534,137.62,606.072,136.21Z" transform="translate(7.632 0)" fill="#f29792"/>
      <path id="Path_550" data-name="Path 550" d="M593.08,203.13s5.326,3.31,25.5-5.05c0,0-.574-13.02,3.391-25.17s-27.086,16.21-27.086,16.21c.33.22.383,1.43.2,3.13a31.833,31.833,0,0,1-1,5.02C592.963,201.33,593.08,199.58,593.08,203.13Z" transform="translate(8.346 0)" fill="#f29792"/>
      <path id="Path_551" data-name="Path 551" d="M623.622,171.94s.074-8.64-3.742-9.43-4.327-3.67-4.327-3.67l-2.19.48s.4-1.52-3.242-3.53-25.417-.24-28.149-3.19,1.233-20.45,7.176-22.17,19.741-1.56,32.348,1.77a14.113,14.113,0,0,1,10.3,12.87C632.265,151.94,626.726,167.26,623.622,171.94Z" transform="translate(7.59)" fill="#01143f"/>
      <path id="Path_552" data-name="Path 552" d="M594.04,197.27c20.049-3.17,23.047-13.9,23.089-14.06-7.792,9.45-22.09,9.04-22.09,9.04A33.549,33.549,0,0,1,594.04,197.27Z" transform="translate(8.407 0)" fill="#ec4e65"/>
      <path id="Path_553" data-name="Path 553" d="M595.327,207.38s-3.646,5.07-5.857,18.07-1.828,35.41-1.828,35.41l5.081.58s7.686-45.69,6.357-53.65Z" transform="translate(8.002 0)" fill="#434343"/>
      <path id="Path_554" data-name="Path 554" d="M613.64,158.84c1.137-2.85,7.59-2.49,6.931,2.03s-6,11.47-8.132,10.17S612.067,162.77,613.64,158.84Z" transform="translate(9.504 0)" fill="#ec4e65"/>
      <path id="Path_555" data-name="Path 555" d="M574.621,205.04s-12.214,15.2-7.686,54.99C575.11,331.92,553.7,447.32,553.7,447.32l22.1,6.51s21.112-147.52,15.733-201.06c-2.456-24.4-9.727-32.52,1.754-52.84C593.277,199.92,582.1,200.45,574.621,205.04Z" transform="translate(5.863 0)" fill="#fff"/>
      <path id="Path_556" data-name="Path 556" d="M627.354,199.58s-34.974,33.23-37.717,58.43-7.2,195.81-7.2,195.81l83.268-4.56s-7.654-90.07-9.525-101.33-5.73-75.96,2.7-105.98c4.529-16.13-.861-36.59-11.2-38.82S627.354,199.58,627.354,199.58Z" transform="translate(7.675 0)" fill="#fff"/>
      <path id="Path_557" data-name="Path 557" d="M636.3,203.89s-13.469,3.49-6.059,26.75c5.8,18.22,6.591,22.13,6.591,22.13l31.083-7.3s-9.11-40.01-23.982-42.16C643.923,203.3,639.193,202.66,636.3,203.89Z" transform="translate(10.549 0)" fill="#dbdff0"/>
      <path id="Path_558" data-name="Path 558" d="M539.96,326.98l60.923,59.3,40.459-36.78L582,288.76Z" transform="translate(4.997 0)" fill="#e2ded2"/>
      <path id="Path_559" data-name="Path 559" d="M545.38,328.16l54.1,52.67,35.942-32.67-52.706-53.95Z" transform="translate(5.339 0)" fill="#f1ecdf"/>
      <path id="Path_560" data-name="Path 560" d="M557.325,319.35l-3.8-3.69,14.532-13.21,4.358,3.18Z" transform="translate(5.853 0)" fill="#f1ecdf"/>
      <path id="Path_561" data-name="Path 561" d="M618.315,194.48s-10.545,5.99-21,7.33l5.549,8.33,17.593-11.4Z" transform="translate(8.613 0)" fill="#a7aab8"/>
      <path id="Path_562" data-name="Path 562" d="M594.143,197.27s1.116,3.43,3.487,4.55l-5.22,6.84.191-9.07Z" transform="translate(8.304 0)" fill="#a7aab8"/>
      <path id="Path_563" data-name="Path 563" d="M597.575,201.82l-4.125,5.42s2.615,3.11,8.239.75Z" transform="translate(8.369 0)" fill="#434343"/>
      <path id="Path_565" data-name="Path 565" d="M641.31,251.51s4.061,24.86,3.774,26.45S663.464,272.97,641.31,251.51Z" transform="translate(11.387 0)" fill="#a7aab8"/>
      <path id="Path_566" data-name="Path 566" d="M613.994,310.2a5.415,5.415,0,0,1-2.392,2.24c-2.583.97-6.7-.57-8.3,2.9s8.685,11.62,11.268,12.05,6.229-3.55,8.611-11.2S613.994,310.2,613.994,310.2Z" transform="translate(8.98 0)" fill="#f29792"/>
      <path id="Path_567" data-name="Path 567" d="M604.9,314.25a107.647,107.647,0,0,0-8.8,8.46c-3.838,4.15-7.537,9.73-6.878,10.78,1.467,2.34,5.039-2.89,9.142-6.75,3.784-3.56,3.157-2.94,3.157-2.94s.011-.38-3.3,4.29c-3.551,5.02-6.644,10.52-5.8,11.74.4.59,2.062,2.05,2.849-.35-.712,1.12-.829.85-.361,1.19,2.456,1.76,8.9-4.8,11.46-7.41-1.956,2.01-3.157,3.7-.935,3.87,2.53.2,11.194-9.49,14.659-12.66C623.89,321,604.9,314.25,604.9,314.25Z" transform="translate(8.098 0)" fill="#f29792"/>
      <path id="Path_568" data-name="Path 568" d="M635.811,205.45c-2.817,1.03-3.891,5.74-2.732,19.38s6.261,19.92,8.175,23.08,12.385,22.61,10.5,25.17-19.666,19.07-20.7,20.41-20.889,18.26-20.889,18.26l10.11,13.29s42.883-31.51,46.232-34.66,13.341-9.76,9.652-20.75c-3.763-11.17-10.513-37.32-11.715-39.36S654.456,198.66,635.811,205.45Z" transform="translate(9.423 0)" fill="#fff"/>
    </g>
    <g id="virus" transform="translate(229.959 1613.81)">
      <g id="Group_98" data-name="Group 98" transform="translate(708.99 405.384)">
        <path id="Path_569" data-name="Path 569" d="M723.072,406.122a15.286,15.286,0,1,1-15.3-15.272A15.282,15.282,0,0,1,723.072,406.122Z" transform="translate(-692.5 -390.85)" fill="#503caa"/>
        <path id="Path_570" data-name="Path 570" d="M706.733,402.3a3.61,3.61,0,1,1-3.6,3.617A3.622,3.622,0,0,1,706.733,402.3Z" transform="translate(-688.168 -386.183)" fill="#816ae6"/>
        <path id="Path_571" data-name="Path 571" d="M701.241,394.31a5.4,5.4,0,1,1-5.391,5.405A5.394,5.394,0,0,1,701.241,394.31Z" transform="translate(-691.135 -389.44)" fill="#816ae6"/>
        <path id="Path_572" data-name="Path 572" d="M700.331,404.1a2.351,2.351,0,1,1-2.351,2.351A2.346,2.346,0,0,1,700.331,404.1Z" transform="translate(-690.266 -385.45)" fill="#816ae6"/>
      </g>
      <g id="Group_99" data-name="Group 99" transform="translate(652.041 355.19)">
        <path id="Path_573" data-name="Path 573" d="M706.248,390.982a5.725,5.725,0,0,0-.7,2.576c-1.126-.1-2.252-.183-3.392-.239a21.1,21.1,0,0,1-13.386,11.852c-.028,1.492-.07,2.97-.155,4.462h-.042a3.027,3.027,0,0,0-1.422.338c-.324-1.408-.661-2.815-1.013-4.209a20.9,20.9,0,0,1-14.92-3.237c-.563.408-1.112.788-1.689,1.182a2.355,2.355,0,0,0-1.168-1.013,17.9,17.9,0,0,0,1.07-1.478,20.967,20.967,0,0,1-7.418-13.2c-1.084-.127-2.2-.239-3.308-.352a3.425,3.425,0,0,0,.268-.619,4.957,4.957,0,0,0,.141-2.632c.915-.253,1.8-.507,2.717-.746a20.8,20.8,0,0,1,2.745-9.135c-.943-1.281-1.943-2.562-2.956-3.829a2.073,2.073,0,0,0,1.168-.985c1.112.816,2.252,1.619,3.364,2.449a21.044,21.044,0,0,1,16.68-8.234,21.409,21.409,0,0,1,4.786.549c.436-.971.859-1.942,1.267-2.928a5.167,5.167,0,0,0,2.463,1.14c-.169.943-.31,1.9-.45,2.843A20.96,20.96,0,0,1,702.109,376.5c.676-.239,1.351-.479,2.027-.746a4.183,4.183,0,0,0,1.14,1.675c-.774.422-1.548.873-2.323,1.295a21.121,21.121,0,0,1,.282,11.486C704.235,390.49,705.248,390.743,706.248,390.982Z" transform="translate(-649.327 -352.598)" fill="#503caa"/>
        <path id="Path_574" data-name="Path 574" d="M691.993,385.967a5.551,5.551,0,0,1,.7-2.576,6,6,0,1,1-.7,2.829A.766.766,0,0,1,691.993,385.967Z" transform="translate(-635.762 -344.993)" fill="#816ae6"/>
        <path id="Path_575" data-name="Path 575" d="M691.053,373.256a4.229,4.229,0,0,1-.253-1.408,4.138,4.138,0,1,1,4.138,4.138,4.1,4.1,0,0,1-2.745-1.042A4.284,4.284,0,0,1,691.053,373.256Z" transform="translate(-636.244 -350.087)" fill="#816ae6"/>
        <path id="Path_576" data-name="Path 576" d="M683.121,365.282a5.136,5.136,0,1,1,.83.056A3.98,3.98,0,0,1,683.121,365.282Z" transform="translate(-641.106 -355.19)" fill="#816ae6"/>
        <path id="Path_577" data-name="Path 577" d="M681.424,380.22a3.385,3.385,0,1,1-3.364,3.392A3.391,3.391,0,0,1,681.424,380.22Z" transform="translate(-641.437 -344.989)" fill="#816ae6"/>
        <path id="Path_578" data-name="Path 578" d="M680.9,395.71a3.206,3.206,0,1,1-1.464.338,3.026,3.026,0,0,1,1.422-.338Z" transform="translate(-641.6 -338.675)" fill="#816ae6"/>
        <path id="Path_579" data-name="Path 579" d="M672.8,369.96a8.685,8.685,0,1,1-8.685,8.685A8.668,8.668,0,0,1,672.8,369.96Z" transform="translate(-647.118 -349.17)" fill="#816ae6"/>
        <path id="Path_580" data-name="Path 580" d="M673.533,385.54a2.766,2.766,0,1,1-2.773,2.773A2.757,2.757,0,0,1,673.533,385.54Z" transform="translate(-644.412 -342.82)" fill="#816ae6"/>
        <path id="Path_581" data-name="Path 581" d="M666.585,390.841a2.618,2.618,0,0,1,1.563,2.337,2.534,2.534,0,1,1-2.534-2.548A2.5,2.5,0,0,1,666.585,390.841Z" transform="translate(-647.542 -340.746)" fill="#816ae6"/>
        <path id="Path_582" data-name="Path 582" d="M662.77,368.279a2.029,2.029,0,0,1-1.168.985,1.952,1.952,0,0,1-.7.127,2.161,2.161,0,1,1,2.154-2.154A2.025,2.025,0,0,1,662.77,368.279Z" transform="translate(-649.315 -351.163)" fill="#816ae6"/>
        <path id="Path_583" data-name="Path 583" d="M661.836,378.919a4.957,4.957,0,0,1-.141,2.632,4.091,4.091,0,0,1-.267.619,4.945,4.945,0,1,1,.408-3.251Z" transform="translate(-652.041 -347.107)" fill="#816ae6"/>
      </g>
      <g id="Group_100" data-name="Group 100" transform="translate(669.198 419.811)">
        <path id="Path_584" data-name="Path 584" d="M678.686,408.321a7.228,7.228,0,1,1-7.235-7.221A7.221,7.221,0,0,1,678.686,408.321Z" transform="translate(-664.23 -401.1)" fill="#503caa"/>
        <path id="Path_585" data-name="Path 585" d="M670.967,406.51a1.7,1.7,0,1,1-1.717,1.7A1.7,1.7,0,0,1,670.967,406.51Z" transform="translate(-662.184 -398.895)" fill="#816ae6"/>
        <path id="Path_586" data-name="Path 586" d="M668.358,402.73a2.555,2.555,0,1,1-2.548,2.562A2.568,2.568,0,0,1,668.358,402.73Z" transform="translate(-663.586 -400.436)" fill="#816ae6"/>
        <path id="Path_587" data-name="Path 587" d="M667.932,407.36a1.112,1.112,0,1,1-1.112,1.112A1.105,1.105,0,0,1,667.932,407.36Z" transform="translate(-663.174 -398.549)" fill="#816ae6"/>
      </g>
    </g>
    <g id="virus-2" data-name="virus" transform="translate(198.959 1669.278)">
      <g id="Group_99-2" data-name="Group 99" transform="translate(613.041 367.19)">
        <path id="Path_573-2" data-name="Path 573" d="M691.236,381.69a3.918,3.918,0,0,0-.482,1.763c-.771-.067-1.541-.125-2.321-.164a14.437,14.437,0,0,1-9.16,8.11c-.019,1.021-.048,2.032-.106,3.053h-.029a2.071,2.071,0,0,0-.973.231c-.221-.963-.453-1.926-.693-2.88a14.3,14.3,0,0,1-10.21-2.215c-.385.279-.761.539-1.156.809a1.611,1.611,0,0,0-.8-.693,12.226,12.226,0,0,0,.732-1.011,14.347,14.347,0,0,1-5.076-9.035c-.742-.087-1.5-.164-2.263-.241a2.344,2.344,0,0,0,.183-.424,3.392,3.392,0,0,0,.1-1.8c.626-.173,1.233-.347,1.859-.51a14.231,14.231,0,0,1,1.878-6.251c-.645-.876-1.329-1.753-2.023-2.62a1.418,1.418,0,0,0,.8-.674c.761.559,1.541,1.108,2.3,1.676a14.4,14.4,0,0,1,11.414-5.635,14.652,14.652,0,0,1,3.275.376c.3-.665.588-1.329.867-2a3.536,3.536,0,0,0,1.686.78c-.116.645-.212,1.3-.308,1.946a14.342,14.342,0,0,1,7.676,7.5c.462-.164.925-.328,1.387-.51a2.863,2.863,0,0,0,.78,1.146c-.53.289-1.06.6-1.589.886a14.454,14.454,0,0,1,.193,7.86C689.859,381.353,690.552,381.526,691.236,381.69Z" transform="translate(-652.286 -355.424)" fill="#503caa"/>
        <path id="Path_574-2" data-name="Path 574" d="M691.99,384.149a3.8,3.8,0,0,1,.482-1.763,4.109,4.109,0,1,1-.482,1.936A.522.522,0,0,1,691.99,384.149Z" transform="translate(-653.512 -356.111)" fill="#816ae6"/>
        <path id="Path_575-2" data-name="Path 575" d="M690.973,371.5a2.894,2.894,0,0,1-.173-.963,2.832,2.832,0,1,1,2.832,2.832,2.8,2.8,0,0,1-1.878-.713A2.931,2.931,0,0,1,690.973,371.5Z" transform="translate(-653.468 -355.651)" fill="#816ae6"/>
        <path id="Path_576-2" data-name="Path 576" d="M681.779,362.1a3.515,3.515,0,1,1,.568.039A2.721,2.721,0,0,1,681.779,362.1Z" transform="translate(-653.029 -355.19)" fill="#816ae6"/>
        <path id="Path_577-2" data-name="Path 577" d="M680.362,380.22a2.316,2.316,0,1,1-2.3,2.321A2.32,2.32,0,0,1,680.362,380.22Z" transform="translate(-652.999 -356.112)" fill="#816ae6"/>
        <path id="Path_578-2" data-name="Path 578" d="M679.875,395.71a2.194,2.194,0,1,1-1,.231,2.071,2.071,0,0,1,.973-.231Z" transform="translate(-652.984 -356.682)" fill="#816ae6"/>
        <path id="Path_579-2" data-name="Path 579" d="M670.063,369.96a5.943,5.943,0,1,1-5.943,5.943A5.932,5.932,0,0,1,670.063,369.96Z" transform="translate(-652.486 -355.734)" fill="#816ae6"/>
        <path id="Path_580-2" data-name="Path 580" d="M672.657,385.54a1.893,1.893,0,1,1-1.9,1.9A1.887,1.887,0,0,1,672.657,385.54Z" transform="translate(-652.73 -356.308)" fill="#816ae6"/>
        <path id="Path_581-2" data-name="Path 581" d="M665.478,390.774a1.791,1.791,0,0,1,1.069,1.6,1.734,1.734,0,1,1-1.734-1.743A1.714,1.714,0,0,1,665.478,390.774Z" transform="translate(-652.448 -356.495)" fill="#816ae6"/>
        <path id="Path_582-2" data-name="Path 582" d="M661.494,367.266a1.388,1.388,0,0,1-.8.674,1.335,1.335,0,0,1-.482.087,1.478,1.478,0,1,1,1.474-1.474A1.386,1.386,0,0,1,661.494,367.266Z" transform="translate(-652.287 -355.554)" fill="#816ae6"/>
        <path id="Path_583-2" data-name="Path 583" d="M658.744,377.688a3.391,3.391,0,0,1-.1,1.8,2.806,2.806,0,0,1-.183.424,3.384,3.384,0,1,1,.279-2.225Z" transform="translate(-652.041 -355.92)" fill="#816ae6"/>
      </g>
    </g>
  </g>
</svg>
