<svg xmlns="http://www.w3.org/2000/svg" width="129" height="130.311" viewBox="0 0 129 130.311"><g transform="translate(-582 -1292.231)"><circle cx="64.5" cy="64.5" r="64.5" transform="translate(582 1293.542)" fill="#64e5f9"/><g transform="translate(121.27 1061.662)"><path d="M492.94,296.08a2.4,2.4,0,0,0,.99,2.5,1.059,1.059,0,0,1,.23.19.641.641,0,0,1,.08.3c.05.43.03.97-.36,1.14-.13.05-.27.05-.4.09-.48.15-.61.78-.58,1.29a1.268,1.268,0,0,0,.44,1.05,1.38,1.38,0,0,0,1.28-.14,4.714,4.714,0,0,0,2.63-2.23,4.511,4.511,0,0,0,.14-2.1c-.1-1.03-.25-2.05-.44-3.07Z" fill="#fff"/><path d="M468.79,296a3.427,3.427,0,0,0-.91,3.75,3.844,3.844,0,0,0,.19.47,3.958,3.958,0,0,0,1.52,1.72,3.516,3.516,0,0,0,2.03.48.266.266,0,0,0,.18-.07.255.255,0,0,0,.01-.21,6.788,6.788,0,0,0-.99-2.15.5.5,0,0,0,.57-.19,1.272,1.272,0,0,0,.21-.61,6.715,6.715,0,0,0-.23-2.92c-.13.05-.25.09-.38.14Z" fill="#fff"/><path d="M486.27,341.59c-.01.13-.02.26-.03.38-.45,5.04-.76,6.49,1.35,7.68,2.16,1.22,1.5,3.09,4.13,3.56s5.16-.28,5.25-1.59-1.66-1.95-3.19-4.59a19.659,19.659,0,0,1-2.06-5.63Z" fill="#fff"/><path d="M489.26,344.38a4.651,4.651,0,0,0,1.83,3.42,26.209,26.209,0,0,1,3.01,2.64,1.967,1.967,0,0,1,.56,1.29c-.03.84-.87,1.38-1.61,1.77.73-.16,1.45-.31,2.18-.47a2.225,2.225,0,0,0,1.58-.85,1.623,1.623,0,0,0-.28-1.71c-.37-.49-.88-.84-1.29-1.29a8.719,8.719,0,0,1-1.53-2.79l-.96-2.43c-.19-.49-.5-1.07-1.03-1.09Z" fill="#e1e1ff"/><path d="M471.36,342.81c.19,3-.88,6.58-2.34,8.25s-2.53,3.75,1.13,4.41,5.63-1.88,5.72-3.66,2.34-2.53,2.25-4.31,0-3.56,0-3.56Z" fill="#fff"/><path d="M472.97,345.27c.42.67,1.59.35,2.11.95a1.3,1.3,0,0,1,.24.96,5.114,5.114,0,0,1-.48,1.51,15.493,15.493,0,0,1-2.14,3.81,5.156,5.156,0,0,1-3.76,1.99c1.84,1,4.43.81,5.69-.86a11.407,11.407,0,0,0,.8-1.41c.65-1.19,1.58-2.22,2.19-3.43a3.952,3.952,0,0,0,.1-3.88.565.565,0,0,1-.44.21Z" fill="#e1e1ff"/><path d="M467.24,296.64l4.46.34,1.54-4.41c3.19,2.44,13.69,1.03,15,1.03a10.008,10.008,0,0,0,3.28-.94l.28,3s4.03.94,6.66-1.41c-.75-5.91-3.61-27.96-4.5-30.66s-2.63-5.72-8.16-6.84c-1.03,3.47-5.44,3.17-8.86.97a10.447,10.447,0,0,0-8.11,7.84c-.84,3.09-1.41,18.47-1.41,18.47Z" fill="#77f"/><path d="M472.89,267.69q-.645,3.75-1.15,7.51a161.414,161.414,0,0,0-1.56,20.48,1.661,1.661,0,0,0,.38,1.31,1.126,1.126,0,0,0,1.51-.25,3.2,3.2,0,0,0,.59-1.57,27.924,27.924,0,0,0,.47-6.38Z" fill="#6363eb"/><path d="M495.21,295.75a.22.22,0,0,0,.01-.08,77.13,77.13,0,0,0-.86-9.59c-.23-2.29-.65-4.46-.8-6.77-.17-2.58-.33-5.15-.5-7.73a34.376,34.376,0,0,0-.35-3.52,35.272,35.272,0,0,0-.92-3.78,11.837,11.837,0,0,0-1.47-3.62,9.9,9.9,0,0,0-1.8-1.86c-.2-.17-2.55-1.92-2.43-2.15,0,0-1.45,2.61-3.88,2.79.73-.05,1.24,2.43,1.47,2.91a22.387,22.387,0,0,1,1.53,3.01,36.273,36.273,0,0,1,1.05,4.5c.53,3.05.75,6.15.98,9.24.18,2.55.37,5.1.55,7.65.23,3.14-.94,4.47-2.45,6.95,1.91.18,4.21-.54,6.12-.82l.38,3A9.045,9.045,0,0,0,495.21,295.75Z" fill="#6363eb"/><path d="M489.47,246.17a1.55,1.55,0,0,1-1.98,1.39.415.415,0,0,0-.52.4c-.04,2.85-2.08,4.68-4.65,5.47a.365.365,0,0,0-.24.33.315.315,0,0,0,.05.2.266.266,0,0,0,.28.15,5.11,5.11,0,0,0,1.32-.33l.09-.03a1.547,1.547,0,0,0-.04.31,2.374,2.374,0,0,0,.04.88,2.554,2.554,0,0,0,.62,1.14,2.178,2.178,0,0,0,.96.56,3.1,3.1,0,0,1-1.2,1.55,5.2,5.2,0,0,1-2.5.64h-.15a6.066,6.066,0,0,1-3.81-1.41,1.834,1.834,0,0,0,.88-.9.332.332,0,0,0,.36-.31,6.08,6.08,0,0,0-.16-1.85,8.746,8.746,0,0,0-.23-.88c-.01-.02-.02-.03-.02-.05a4.679,4.679,0,0,0,1.41.32.312.312,0,0,0,.32-.4.3.3,0,0,0-.11-.22.228.228,0,0,0-.12-.06,5.249,5.249,0,0,1-4.2-5.11.415.415,0,0,0-.52-.4,1.555,1.555,0,0,1-1.98-1.39,1.143,1.143,0,0,1,1.88-.9c.26.2.63-.08.63-.37v-.29a.226.226,0,0,0,.14-.23,6.294,6.294,0,0,0-.15-1.06c0-1.46-.02-2.93-.04-4.39a.358.358,0,0,0,.11-.22c.06-.34.13-.68.18-1.02a2.209,2.209,0,0,0,.05-.25c.01-.05.01-.1.02-.14a18.84,18.84,0,0,0,8.58,1.14,10.288,10.288,0,0,0,1.53-.27,1.63,1.63,0,0,0,.65.19,7.44,7.44,0,0,0,.04,1.7c-.02,1.62-.04,3.23-.03,4.84,0,.29.37.57.63.37A1.144,1.144,0,0,1,489.47,246.17Z" fill="#fff"/><path d="M486.09,256.65a5.029,5.029,0,0,1-5.09,2.51,1.2,1.2,0,0,0,.55-.33,1.665,1.665,0,0,0,.39-.65,4.314,4.314,0,0,0,.17-1.39c.01-.94.01-1.89.02-2.83a.266.266,0,0,0,.28.15,5.11,5.11,0,0,0,1.32-.33,2.747,2.747,0,0,0,.05.28A3.8,3.8,0,0,0,486.09,256.65Z" fill="#e1e1ff"/><path d="M489.47,246.17a1.55,1.55,0,0,1-1.98,1.39.415.415,0,0,0-.52.4c-.04,2.85-2.08,4.68-4.65,5.47a.365.365,0,0,0-.24.33,3.812,3.812,0,0,1-1.78-.41,1.975,1.975,0,0,1-.38-.2,2.449,2.449,0,0,0,.27-.02,6.322,6.322,0,0,0,5.78-5.47c.34-2.51-.83-5.03-.59-7.55a5.053,5.053,0,0,1-3.48.52,12.7,12.7,0,0,1-3.36-1.24,7.351,7.351,0,0,1-2.42-1.7,2.209,2.209,0,0,0,.05-.25c.01-.05.01-.1.02-.14a18.84,18.84,0,0,0,8.58,1.14,10.288,10.288,0,0,0,1.53-.27,1.63,1.63,0,0,0,.65.19,7.44,7.44,0,0,0,.04,1.7c-.02,1.62-.04,3.23-.03,4.84,0,.29.37.57.63.37A1.144,1.144,0,0,1,489.47,246.17Z" fill="#e1e1ff"/><path d="M479.15,243.45l-.01-.17a.436.436,0,0,0-.19-.25.424.424,0,0,0-.33-.04.436.436,0,0,0-.25.19,1.56,1.56,0,0,0-.13,1.14.47.47,0,0,0,.21.27.477.477,0,0,0,.35.05.441.441,0,0,0,.27-.21.477.477,0,0,0,.05-.35l-.04-.16v-.18a.8.8,0,0,1,.06-.22l-.04.1.01-.01Z" fill="#372b7b"/><path d="M484.41,243.15a.457.457,0,0,0-.31-.13.416.416,0,0,0-.31.13.509.509,0,0,0-.13.31c-.02.25-.03.5-.05.75a.478.478,0,0,0,.48.48.5.5,0,0,0,.34-.14.476.476,0,0,0,.14-.34c-.02-.25-.03-.5-.05-.75A.386.386,0,0,0,484.41,243.15Z" fill="#372b7b"/><path d="M479.04,241.11a3.3,3.3,0,0,0-1.08.13,2.836,2.836,0,0,0-.97.55.246.246,0,0,0-.02.33.237.237,0,0,0,.32.06,3.538,3.538,0,0,1,.85-.35,3.592,3.592,0,0,1,.47-.12,2.807,2.807,0,0,1,.43-.03.285.285,0,0,0,0-.57Z" fill="#372b7b"/><path d="M483.55,241.53c.19.04.39.09.58.14a2.3,2.3,0,0,1,.96.57c.23.23.59-.14.35-.35a2.674,2.674,0,0,0-1.18-.64,1.582,1.582,0,0,0-.65-.05,2.5,2.5,0,0,0-.65.17l.02.12A2.192,2.192,0,0,1,483.55,241.53Z" fill="#372b7b"/><path d="M482.97,249.46a2.945,2.945,0,0,1-1.53.64,2.54,2.54,0,0,1-1.68-.35.26.26,0,1,0-.26.45,3.181,3.181,0,0,0,2,.61,2.864,2.864,0,0,0,1.96-.87C483.77,249.63,483.3,249.17,482.97,249.46Z" fill="#372b7b"/><path d="M480.85,248.8a4.007,4.007,0,0,0,.49.01,1.807,1.807,0,0,0,.52-.06c.17-.06.33-.13.49-.2a.261.261,0,0,0,.11-.33.255.255,0,0,0-.31-.15c-.18.03-.25.04-.42.06s-.34.08-.52.11l-.12.02h-.05l-.25.02a.42.42,0,0,0-.29.09l-.07.18.14.2A.869.869,0,0,0,480.85,248.8Z" fill="#372b7b"/><path d="M492.1,343.57a13.778,13.778,0,0,1-5.96.22c-.82-6.3-1.32-12.64-1.85-18.97-.28-3.38-.55-6.77-.86-10.15a58.623,58.623,0,0,0-1-8.33,3.815,3.815,0,0,0,.08-.96c.03-.51.05-1.01.07-1.52.04-.94.06-1.88.08-2.82s.01-1.88-.04-2.82a8.442,8.442,0,0,0-.31-2.84h-.15a9.638,9.638,0,0,0-.23,2.84c-.04.94-.07,1.88-.08,2.82s-.05,1.88-.08,2.82c-.02.51-.05,1.01-.07,1.52a4.762,4.762,0,0,0-.02.84,60.115,60.115,0,0,0-1.05,8.43c-.33,3.57-.63,7.15-.94,10.72-.56,6.51-1.09,13.02-1.94,19.5a13.784,13.784,0,0,1-5.96-.22c.66-13.58.87-27.19,1.31-40.78.11-3.48.27-6.95.27-10.43a3.167,3.167,0,0,0,1.03.35,37.1,37.1,0,0,0,5.66.7,38.825,38.825,0,0,0,10.64-.99c-.01,8.31.43,16.63.61,24.94C491.5,326.82,491.69,335.2,492.1,343.57Z" fill="#473f97"/><path d="M482.14,294.13s-4.13,33.38-4.25,37-3,14.63-2.63,14.63a18.359,18.359,0,0,0,2.48-.89l4.35-38.03Z" fill="#372b7b"/><path d="M482.09,294.7q0,6.06.01,12.13a4.989,4.989,0,0,0,.1,1.22,5.809,5.809,0,0,0,.63,1.42c2,3.78,2.69,8.09,3.35,12.31.37,2.39.75,4.78,1.12,7.18.81,5.18,1.62,10.37,2.32,15.56l3.32-.45q-.72-10.92-.69-21.86c0-1.75.02-3.5-.02-5.25-.19-8.01-1.63-15.96-1.46-23.97a32.973,32.973,0,0,1-9.13.83Z" fill="#372b7b"/><path d="M498.87,293.88c-1.44-7.67-2.6-15.34-3.45-23.11-.35-3.22-.64-7.04-2.35-9.88a8.1,8.1,0,0,0-2.86-2.72,9.591,9.591,0,0,0-3.96-1.54,3.115,3.115,0,0,0-.04-.52.307.307,0,0,0-.48-.18,1.988,1.988,0,0,1-1.25-1.2,2.125,2.125,0,0,1-.07-.97c.02-.11.06-.22.09-.33a6.472,6.472,0,0,0,3.27-5.04,2.3,2.3,0,0,0,2.52-2.44,1.983,1.983,0,0,0-2.5-1.72v-.09c.39-.72.78-1.44,1.16-2.16a8.132,8.132,0,0,0,.94-2.28,2.91,2.91,0,0,0-.78-2.71,2.908,2.908,0,0,0,.12-.39,2.585,2.585,0,0,0,.54-2.46,4.351,4.351,0,0,0-3.25-2.84,14.254,14.254,0,0,0-4.98-.56,9.565,9.565,0,0,0-4.36,1.32,7.84,7.84,0,0,0-1.58,1.28,14.852,14.852,0,0,0-1.21,1.76c-.22.32-.54.34-.85.57a2.16,2.16,0,0,0-.63.83,3.241,3.241,0,0,0,.1,2.37c.34.94.73,1.87,1.1,2.8a19.13,19.13,0,0,0,.94,2.2v.36a1.976,1.976,0,0,0-2.5,1.73,2.293,2.293,0,0,0,2.52,2.43,6.125,6.125,0,0,0,2.86,4.72v.02c.04.15.08.28.12.43a8.546,8.546,0,0,1,.17.88,13.348,13.348,0,0,1,.09,1.41,1.594,1.594,0,0,1-1.31,1.02.357.357,0,0,0-.35.3c-3.18,1.32-6.16,2.85-7.55,6.18-1.45,3.45-1.6,7.32-1.72,11.01-.14,4.54-.47,9.06-.72,13.59-.13,2.37-.25,4.75-.19,7.13.01.47-.05.98.35,1.31a2.978,2.978,0,0,0,1.11.47,2.414,2.414,0,0,0-.33.71,3.918,3.918,0,0,0-.12,1.13,4.352,4.352,0,0,0,.67,2.25,4.212,4.212,0,0,0,1.67,1.49c.51.25,1.53.72,2.04.29v-.06a.293.293,0,0,0,.13-.29,3.947,3.947,0,0,0-.51-1.28,3.836,3.836,0,0,0-.41-.56l-.07-.06a1.247,1.247,0,0,0,.58-.39,2.091,2.091,0,0,0,.29-1.67c-.05-.32-.12-.63-.16-.94a2.178,2.178,0,0,1-.01-.51,1.481,1.481,0,0,0,.06-.47l-.17-.11-.13-.1a4.216,4.216,0,0,0-1.06-.13c-.28-.02-.55-.04-.82-.05l-.95-.21c-.21-.05-.43-.1-.65-.15-.5,0-.68-.22-.54-.67a10.8,10.8,0,0,1,0-2.84c.03-1.99.12-3.98.23-5.97.22-3.91.45-7.8.55-11.71.08-3.42.18-6.94,1.3-10.2,1.23-3.6,4.11-5.22,7.42-6.64a6.831,6.831,0,0,0,5.15,2.07,5.089,5.089,0,0,0,3.05-1,3.434,3.434,0,0,0,.9-1.17,1.932,1.932,0,0,0,.19-.68c1.13.79,2.66,1.08,3.84,1.85a7.6,7.6,0,0,1,3.16,4.25,48.651,48.651,0,0,1,1.74,10.46c.66,6.93,1.9,13.82,3.19,20.67a11.018,11.018,0,0,1-4.99,1.48l-.16-.15a.284.284,0,0,0-.33.16c-.16,0-.32,0-.48-.01-.08-.84-.17-1.69-.25-2.53a.474.474,0,0,0-.07-.66c-.01-.11-.02-.22-.03-.34q-.36-6.4-.71-12.82c-.13-2.24-.25-4.47-.37-6.71a37.931,37.931,0,0,0-.62-6.48c-.03-.11-.17-.07-.19.02a41.506,41.506,0,0,0,.1,6.96q.15,3.225.32,6.46.315,6.465.65,12.93a37.749,37.749,0,0,1-10.04,1.19,37.07,37.07,0,0,1-5.46-.5,5.194,5.194,0,0,1-1.37-.26c-.56-.31-.59-.66-.66-1.29a24.345,24.345,0,0,1,.02-2.7q.03-5.4.04-10.8a82.95,82.95,0,0,0-.2-11.04c-.01-.09-.17-.14-.18-.03-.6,4.02-.32,8.25-.36,12.3-.05,4.17-.13,8.34-.12,12.52a1.937,1.937,0,0,0,.32,1.24c-.67,6.55-.71,13.18-.93,19.76-.23,7.07-.42,14.14-.68,21.21q-.2,5.445-.46,10.89l.03.16a18.547,18.547,0,0,1-2.12,5.22,13.105,13.105,0,0,0-1.3,2.38c-.24.7-.4,1.62.35,2.04a7.6,7.6,0,0,0,2.84.81,5.445,5.445,0,0,0,2.62-.32,4.234,4.234,0,0,0,1.88-1.43c.58-.79.71-1.81,1.29-2.6a10.56,10.56,0,0,0,1.7-2.49,5.489,5.489,0,0,0,.22-2.95l.03-.08c.92-6.62,1.47-13.29,2.04-19.95.31-3.58.61-7.16.94-10.73.16-1.73.4-3.51.56-5.28.16,1.72.39,3.44.54,5.11.32,3.45.6,6.91.88,10.37.54,6.47,1.06,12.96,1.95,19.4a.362.362,0,0,0,.39.29,11.623,11.623,0,0,0-.09,2.57,2.288,2.288,0,0,0,1.15,1.95,5.584,5.584,0,0,1,1.09.69,6.531,6.531,0,0,1,.83,1.07,5.86,5.86,0,0,0,1.64,1.86c1.47.93,3.38.64,4.97.27.75-.17,1.63-.34,1.82-1.21a2.387,2.387,0,0,0-.85-2.07,17.408,17.408,0,0,1-2.07-2.83,21.994,21.994,0,0,1-1.42-3.08.329.329,0,0,0,.08-.25c-.43-8.48-.62-16.97-.86-25.46-.22-8.32-.17-16.74-1-25.03l.23-.05c.07.93.15,1.87.22,2.8.04.44.71.45.71.04.12.02.24.03.36.05a3.485,3.485,0,0,0,.18,1.28,3.77,3.77,0,0,0,.41.83,2.319,2.319,0,0,0,.7.66l.08.02c0,.22.01.45.01.67a.267.267,0,0,0,.27.26,1.748,1.748,0,0,0,1.65-2,.234.234,0,0,0-.29-.16.237.237,0,0,0-.17.28,1.241,1.241,0,0,1-.93,1.32c.01-.52.02-1.05,0-1.57l-.06-1.53a6.138,6.138,0,0,0,1.13-.15,9.725,9.725,0,0,0,1.2-.35c.04,1.07.06,2.14.14,3.21a2.592,2.592,0,0,1-.8,2.55,6.524,6.524,0,0,1-2.25.92c-.48.11-.77.02-.83-.48a3.46,3.46,0,0,1,.06-1.11.161.161,0,0,0-.29-.12c-.38.66-.69,1.77.13,2.25a2.131,2.131,0,0,0,1.64-.09,7.182,7.182,0,0,0,1.39-.55,2.8,2.8,0,0,0,1.61-2.45,15.843,15.843,0,0,0-.14-2.06c-.07-.75-.15-1.49-.22-2.23a9.5,9.5,0,0,0,1.32-.65.417.417,0,0,0,.42-.24l.04-.03A.474.474,0,0,0,498.87,293.88Zm-10.7-59.95.02.04-.02-.01Zm-17.69,62.95a6,6,0,0,0,.74.11l-.02.06a2.91,2.91,0,0,0,0,.78,4.3,4.3,0,0,1,.1,1.47.721.721,0,0,1-.64.62.346.346,0,0,1-.29-.1c-.13-.17-.08-.5-.09-.71,0-.65-.01-1.3-.02-1.95A.6.6,0,0,0,470.48,296.88Zm-2.19.07c.57.1,1.15.16,1.58.26-.06.65-.13,1.29-.19,1.94a1.52,1.52,0,0,0,.1.94.909.909,0,0,0,.55.43l.22.02.2.26a4.254,4.254,0,0,1,.32.54,3.631,3.631,0,0,1,.29.88,2.838,2.838,0,0,1-.34-.08,3.908,3.908,0,0,1-.82-.33,4.191,4.191,0,0,1-1.4-1.28A4.416,4.416,0,0,1,468.29,296.95Zm15.91-38.77a5.2,5.2,0,0,1-2.5.64,6.008,6.008,0,0,1-3.96-1.41,1.834,1.834,0,0,0,.88-.9.332.332,0,0,0,.36-.31,6.08,6.08,0,0,0-.16-1.85,8.746,8.746,0,0,0-.23-.88l-.02-.05a4.679,4.679,0,0,0,1.41.32c.39.03.46-.58.09-.68a5.249,5.249,0,0,1-4.2-5.11.415.415,0,0,0-.52-.4,1.555,1.555,0,0,1-1.98-1.39,1.143,1.143,0,0,1,1.88-.9c.26.2.63-.08.63-.37v-.29a.226.226,0,0,0,.14-.23,6.294,6.294,0,0,0-.15-1.06c0-1.46-.02-2.93-.04-4.39l.11-.22c.08-.42.16-.85.23-1.27l.02-.14a18.84,18.84,0,0,0,8.58,1.14,10.288,10.288,0,0,0,1.53-.27,1.63,1.63,0,0,0,.65.19,7.44,7.44,0,0,0,.04,1.7c-.02,1.62-.04,3.23-.03,4.84,0,.29.37.57.63.37a1.144,1.144,0,0,1,1.88.9,1.55,1.55,0,0,1-1.98,1.39.415.415,0,0,0-.52.4c-.04,2.85-2.08,4.68-4.65,5.47-.35.11-.31.72.09.68a5.407,5.407,0,0,0,1.41-.36,2.809,2.809,0,0,0,0,1.19,2.554,2.554,0,0,0,.62,1.14,2.178,2.178,0,0,0,.96.56A3.055,3.055,0,0,1,484.2,258.18Zm-6.73,90.19a6.235,6.235,0,0,1-1.31,2.01c-1.03,1.22-1.09,3-2.54,3.87a5.691,5.691,0,0,1-4.95.02c-.21-.08-.39-.11-.49-.32a.994.994,0,0,1,.01-.68,4.529,4.529,0,0,1,.49-1.18c.4-.73.88-1.42,1.26-2.16a15.3,15.3,0,0,0,1.47-4.51,14.841,14.841,0,0,0,6.22.31.409.409,0,0,0-.02.25A4.745,4.745,0,0,1,477.47,348.37Zm16.86.3a19.761,19.761,0,0,0,1.52,1.9,2.358,2.358,0,0,1,.65,1.05c.1.58-.35.79-.83.92-1.44.36-3.22.76-4.63.06-1.35-.68-1.72-2.31-2.87-3.21a9.617,9.617,0,0,0-1.04-.59,1.557,1.557,0,0,1-.79-1.21,20.77,20.77,0,0,1-.16-2.85l.04-.09a14.9,14.9,0,0,0,6.02-.26A15.063,15.063,0,0,0,494.33,348.67Zm-3.02-30.24c.19,8.38.38,16.76.79,25.13a13.778,13.778,0,0,1-5.96.22c-.82-6.3-1.32-12.64-1.85-18.97-.28-3.38-.55-6.77-.86-10.15a58.623,58.623,0,0,0-1-8.33,3.815,3.815,0,0,0,.08-.96c.03-.51.05-1.01.07-1.52.04-.94.06-1.88.08-2.82s.01-1.88-.04-2.82a8.442,8.442,0,0,0-.31-2.84h-.15a9.638,9.638,0,0,0-.23,2.84c-.04.94-.07,1.88-.08,2.82s-.05,1.88-.08,2.82c-.02.51-.05,1.01-.07,1.52a4.762,4.762,0,0,0-.02.84,60.115,60.115,0,0,0-1.05,8.43c-.33,3.57-.63,7.15-.94,10.72-.56,6.51-1.09,13.02-1.94,19.5a13.784,13.784,0,0,1-5.96-.22c.66-13.58.87-27.19,1.31-40.78.11-3.48.27-6.95.27-10.43a3.167,3.167,0,0,0,1.03.35,37.1,37.1,0,0,0,5.66.7,38.825,38.825,0,0,0,10.64-.99C490.69,301.8,491.13,310.13,491.31,318.43Zm2.65-20.59c-.01.14,0,.28,0,.43a3.225,3.225,0,0,1-.78-1.97q.4.03.81.03C493.98,296.83,493.97,297.33,493.96,297.84Z" fill="#372b7b"/><path d="M477.76,233.65l.02.03.25.07c.47-.12.92-.3,1.39-.42a8.994,8.994,0,0,1,2.79-.28c.49.02.97.12,1.45.14.44.02.5-.63.1-.75a7.29,7.29,0,0,0-3.05-.08,7.13,7.13,0,0,0-2.88.93.277.277,0,0,0-.12.29Z" fill="#fff"/><path d="M486.08,233.53c-.04-.27-.07-.53-.11-.8l-.14.07-.1.11-.05.15.01.16.04.1.1.11.14.07.16.01.15-.05.08-.06.08-.13.04-.16-.01-.11-.1-.18-.08-.06-.21-.06-.16.04-.13.08-.08.13-.04.16.01.11.1.18.08.06Z" fill="#fff"/></g><g transform="translate(121.27 1061.662)"><path d="M571.67,333.44l.78,9.62s-1.07-.62-1.35,1.91-.38,3.75,1.13,4.5,2.76,2.98,3.28,3.19a4.705,4.705,0,0,0,4.31.94c2.72-.66,2.44-1.41,1.88-2.53s-3.26-3.22-3.66-5.44a3.577,3.577,0,0,0-2.06-2.81l.44-10.09Z" fill="#fff"/><path d="M574.02,333.63l.56,9.47a4.1,4.1,0,0,1,1.37.98c.98.89,2.2,4.55,2.57,5.39s2.16,1.41,1.03,2.44-4.03.75-4.03.75.94,1.41,4.31.94,2.81-1.31,1.88-2.53a34.161,34.161,0,0,1-3.66-5.44c-.75-1.69-.84-2.25-2.06-2.81.37-6,.28-9.75.28-9.75Z" fill="#e1e1ff"/><path d="M559.02,333.25c-.39.49-.66,8.72-.66,8.72s-1.5-.19-2.25,2.44-1.31,5.44-2.81,7.31-.38,3.56,1.88,3.56,4.31.09,5.25-2.91,2.24-1.89,2.53-4.5c.47-4.22-.75-3.56-.75-3.56l1.31-10.78Z" fill="#fff"/><path d="M552.61,353.58a5.9,5.9,0,0,0,2.69.41,1.746,1.746,0,0,0,.97-.31,2.2,2.2,0,0,0,.49-.77,41.1,41.1,0,0,1,4.14-7.23.907.907,0,0,0,.24-.63c-.09-.58-.88-.46-1.13-.85-.3-.46-.01-1.58.04-2.12.14-1.68.36-3.35.65-5.01.18-1.05.4-2.1.64-3.15.67.01,1.47-.28,2.14-.27-1.27,2.97-.51,6.41-1.08,9.59-.07.38-.16.76-.26,1.13.29-.19.65.43.67.78.06,1.04.09,2.09.09,3.13a3.111,3.111,0,0,1-.12,1.01,3.8,3.8,0,0,1-.82,1.18,12.367,12.367,0,0,0-1.39,1.98,7.542,7.542,0,0,1-.78,1.28,4.018,4.018,0,0,1-2.95,1.33,9.881,9.881,0,0,1-3.27-.54Z" fill="#e1e1ff"/><path d="M578.75,296.02a2.2,2.2,0,0,0,1.39,2.3,3.557,3.557,0,0,1,.12,1.02,1.136,1.136,0,0,1-.48.87c-.14.09-.3.13-.45.21-.52.3-.6,1-.63,1.6a.628.628,0,0,0,.13.52.579.579,0,0,0,.47.08,8.949,8.949,0,0,0,2.67-.8c2.15-.98,1.73-4.87.53-6.41C582.11,295.6,578.78,295.85,578.75,296.02Z" fill="#fff"/><path d="M554.14,296.23c-.48.19-.58.82-.57,1.33a6.009,6.009,0,0,0,.78,3.2,4.378,4.378,0,0,0,3.33,1.93,3.422,3.422,0,0,0-.86-2.28,1.016,1.016,0,0,0,.75-.6,2.378,2.378,0,0,0,.17-.99,7.7,7.7,0,0,0-.26-2.08,5.4,5.4,0,0,0-1.93-.54Z" fill="#fff"/><path d="M559.11,292.47c-.22-.2-.75,40.88-.75,40.88s4.31,1.03,6.56.19c1.78-19.03,3.49-27.29,3.49-27.29l1.76,26.91s2.1,1.67,6.25-.43c.22-8.01.5-39.6.5-39.6S563.42,296.31,559.11,292.47Z" fill="#77f"/><path d="M567.92,294.34l1.31,6.09s3.19,6.47,3.47,9.75,1.69,7.03.84,7.41-2.91.84-1.78,1.31l1.59.66.19,14.16,3.14-.17.33-40.52C577.02,293.03,571.11,295.56,567.92,294.34Z" fill="#6363eb"/><path d="M561.74,333.63s1.41-12.09,1.41-13.31-1.41-1.59-2.06-2.44,1.69.38,2.25-.56,2.63-10.22,3.09-13.31a34.03,34.03,0,0,1,1.78-6.38l.38,10.03-3.66,25.88Z" fill="#6363eb"/><path d="M552.83,296.03a15.548,15.548,0,0,0,5.91.38l.38-3.94s2.72,1.88,8.53,1.78a30.472,30.472,0,0,0,9.84-1.69l.74,3.64a12.2,12.2,0,0,0,6.29-1.77c-.84-6.09-2.91-19.22-3.19-21.66s-.75-7.31-1.88-10.59-7.18-5.55-7.18-5.55-1.82,9.49-2.57,12.02-1.46,5.71-1.46,5.71-3.14-9.27-3.79-11.43a13.135,13.135,0,0,1-.48-4.35l-1.3-1.42s-5.35,2.02-7.22,6.62-2.16,18.75-2.16,18.75Z" fill="#473f97"/><path d="M575.51,246.18a1.55,1.55,0,0,1-1.97,1.39.418.418,0,0,0-.53.39,6.229,6.229,0,0,1-1.76,3.39,19.26,19.26,0,0,0-2.2,2.82c-.18.32.28.72.54.41l.21-.24a2.446,2.446,0,0,0,.06.6,2.535,2.535,0,0,0,.61,1.14,2.087,2.087,0,0,0,.96.56,2.992,2.992,0,0,1-1.2,1.55,5.2,5.2,0,0,1-2.5.64,6.061,6.061,0,0,1-3.96-1.41,1.834,1.834,0,0,0,.88-.9.327.327,0,0,0,.36-.31,5.813,5.813,0,0,0-.15-1.86c-.05-.24-.12-.48-.19-.71.09.11.2.22.29.33.25.31.71-.09.54-.42-.99-1.88-3.51-3.3-3.58-5.6a.424.424,0,0,0-.52-.4,1.55,1.55,0,0,1-1.98-1.39,1.141,1.141,0,0,1,1.88-.9c.26.2.63-.08.63-.36v-.15a.425.425,0,0,0,.28-.45,27.961,27.961,0,0,1-.07-6.4,10.207,10.207,0,0,0,1.26.68,7.651,7.651,0,0,0,1.53.79,1.63,1.63,0,0,0,2.02-.42,1.788,1.788,0,0,0,.28-.86c1.66,1.24,3.85,2.42,5.82,1.8-.03,1.67-.05,3.35-.04,5.02,0,.29.37.56.63.36A1.139,1.139,0,0,1,575.51,246.18Z" fill="#fff"/><path d="M563.56,237.34c-.29-.17-.37.42-.19.71a5.314,5.314,0,0,0,1.86,2.04,1.862,1.862,0,0,0,2.46-.52,8.666,8.666,0,0,0,3.37,2.22,19.07,19.07,0,0,1-.36,7.15c-.72,2.29-2.55,4.4-4.93,4.7a2.109,2.109,0,0,0,2.11.77,6.568,6.568,0,0,1,.18,4.62,4.451,4.451,0,0,0,4.28-2.87,2.646,2.646,0,0,1-2.28-2.37,11.484,11.484,0,0,0,3.51-5.86,1.686,1.686,0,1,0-.07-3.11c.06-1.71.11-3.41.17-5.12a2.876,2.876,0,0,0-.2-1.46,2.787,2.787,0,0,0-.91-.93,8.839,8.839,0,0,0-4.29-1.74,4.9,4.9,0,0,0-4.2,1.61Z" fill="#e1e1ff"/><path d="M565.2,243.45l-.01-.17a.436.436,0,0,0-.19-.25.424.424,0,0,0-.33-.04.436.436,0,0,0-.25.19,1.56,1.56,0,0,0-.13,1.14.47.47,0,0,0,.21.27.477.477,0,0,0,.35.05.441.441,0,0,0,.27-.21.477.477,0,0,0,.05-.35l-.04-.16v-.18a.8.8,0,0,1,.06-.22l-.04.1.01-.01Z" fill="#372b7b"/><path d="M570.46,243.15a.457.457,0,0,0-.31-.13.416.416,0,0,0-.31.13.509.509,0,0,0-.13.31c-.02.25-.03.5-.05.75a.478.478,0,0,0,.48.48.5.5,0,0,0,.34-.14.476.476,0,0,0,.14-.34c-.02-.25-.03-.5-.05-.75A.4.4,0,0,0,570.46,243.15Z" fill="#372b7b"/><path d="M567.54,250.81a2.864,2.864,0,0,0,1.96-.87.347.347,0,0,0-.49-.49,2.945,2.945,0,0,1-1.53.64,2.54,2.54,0,0,1-1.68-.35.261.261,0,0,0-.36.09.268.268,0,0,0,.09.36A3.117,3.117,0,0,0,567.54,250.81Z" fill="#372b7b"/><path d="M566.9,248.79a4.007,4.007,0,0,0,.49.01,1.807,1.807,0,0,0,.52-.06,4.19,4.19,0,0,0,.49-.2.261.261,0,0,0,.11-.33.255.255,0,0,0-.31-.15c-.18.03-.25.04-.42.06s-.34.08-.52.11l-.12.02h-.05l-.25.02a.42.42,0,0,0-.29.09l-.07.18.14.2A.521.521,0,0,0,566.9,248.79Z" fill="#372b7b"/><path d="M584.86,293.91c-1.43-7.68-2.58-15.35-3.42-23.11-.35-3.23-.63-7.05-2.34-9.89a8.02,8.02,0,0,0-2.86-2.72,9.607,9.607,0,0,0-3.96-1.55,1.666,1.666,0,0,0-.02-.31,1.365,1.365,0,0,0-.02-.19v-.02a.316.316,0,0,0-.48-.18,1.9,1.9,0,0,1-1.31-2.16,1.565,1.565,0,0,1,.08-.31c.6-.69,1.19-1.39,1.75-2.11a6.761,6.761,0,0,0,1.51-2.95,2.312,2.312,0,0,0,2.55-2.45,1.977,1.977,0,0,0-2.5-1.71v-.55a11.888,11.888,0,0,0,.66-4.91.035.035,0,0,0-.01-.02,3.129,3.129,0,0,0,.45-1.38,4.892,4.892,0,0,0-1.43-3.45,9.954,9.954,0,0,0-6.26-3.29c-2.21-.28-5.01.12-6.49,1.96a3.179,3.179,0,0,0-.24,3.64c.05.09.11.17.16.25-.01.01-.02,0-.03.01a4.945,4.945,0,0,0-.79,3.82,15.365,15.365,0,0,0,1.22,3.9,1.975,1.975,0,0,0-2.48,1.71,2.306,2.306,0,0,0,2.56,2.45c.26,1.7,1.61,3.17,2.83,4.49a.38.38,0,0,0-.02.26l.12.42c.07.29.13.59.17.88.06.47.07.95.09,1.42a1.615,1.615,0,0,1-1.32,1.01.385.385,0,0,0-.35.3c-3.17,1.32-6.15,2.84-7.56,6.17-1.45,3.45-1.6,7.33-1.72,11.01-.15,4.54-.49,9.06-.74,13.59-.14,2.37-.26,4.76-.2,7.13.01.48-.05.98.35,1.31a2.76,2.76,0,0,0,1.11.47,2.891,2.891,0,0,0-.34.71,4.293,4.293,0,0,0-.11,1.13,4.5,4.5,0,0,0,.66,2.26,4.115,4.115,0,0,0,1.67,1.48c.51.26,1.53.73,2.04.29v-.05a.291.291,0,0,0,.13-.3,4.039,4.039,0,0,0-.51-1.28,4.282,4.282,0,0,0-.4-.55.463.463,0,0,0-.07-.07,1.337,1.337,0,0,0,.58-.38,2.148,2.148,0,0,0,.29-1.68c-.05-.31-.12-.62-.16-.93a2.184,2.184,0,0,1-.01-.51,1.555,1.555,0,0,0,.06-.47c-.01-.09-.09-.11-.17-.11-.04-.04-.07-.09-.13-.11a4.233,4.233,0,0,0-1.07-.12c-.27-.03-.54-.04-.81-.06l-.95-.21-.65-.15c-.5,0-.68-.22-.54-.67a10.8,10.8,0,0,1,0-2.84c.04-1.99.13-3.98.24-5.97.23-3.9.46-7.8.56-11.71.09-3.41.19-6.93,1.31-10.19.97-2.84,2.97-4.43,5.38-5.68a27.747,27.747,0,0,0,.96,5.19c.48,1.98,1.02,3.95,1.63,5.89q.885,2.835,1.93,5.59a15.465,15.465,0,0,0,2.21,4.34c-.07,4.66.03,9.33.06,13.98-.24,0-.48.02-.73.01a37.211,37.211,0,0,1-5.46-.51,5.272,5.272,0,0,1-1.37-.26c-.56-.31-.58-.66-.65-1.29-.09-.87.01-1.82.01-2.7.03-3.6.04-7.2.06-10.8.01-3.64.29-7.43-.19-11.04-.01-.1-.16-.14-.18-.03-.6,4.02-.33,8.25-.38,12.3-.04,4.17-.13,8.34-.13,12.51a2.013,2.013,0,0,0,.32,1.25c-.76,6.6-.6,13.35-.66,19.99-.07,6.72-.15,13.43-.5,20.14a.417.417,0,0,0,.3.4c.16.05.32.07.48.11a8.908,8.908,0,0,0-.23,2.19l-.21,2.46c-.07.85-.15,1.7-.23,2.55-.04.38-.07.77-.11,1.15a.209.209,0,0,0-.26-.15,2.317,2.317,0,0,0-1.53,1.41,23.394,23.394,0,0,0-.41,2.53,14.132,14.132,0,0,1-1.39,3.61,29.843,29.843,0,0,0-1.71,3.01c-.34.87-.52,1.89.47,2.35a8.24,8.24,0,0,0,3.35.76,5.032,5.032,0,0,0,2.86-.86,4.783,4.783,0,0,0,1.64-2.35,5.93,5.93,0,0,1,1.16-1.83,5.766,5.766,0,0,0,.95-1.4,5.511,5.511,0,0,0,.4-3.44v-.01c-.01-.11,0-.22-.01-.33a6.545,6.545,0,0,0-.24-1.38.429.429,0,0,0-.51-.29c-.05.01-.09.04-.13.05.06-.5.12-1.01.19-1.51.13-.94.28-1.88.42-2.82.27-1.78.48-3.55.59-5.34.44-.05.88-.09,1.32-.18a.076.076,0,0,0,.05-.02.466.466,0,0,0,.09-.03.435.435,0,0,0,.07-.06c.01-.02.03-.03.04-.04a.694.694,0,0,0,.05-.13v-.06c.65-4.61,1.17-9.24,1.62-13.87.21-2.16.41-4.31.64-6.47.12-1.18.26-2.36.36-3.55.02-.21.05-.44.07-.66.01.15.03.29.04.43.07,1.19.17,2.37.25,3.55.15,2.2.25,4.4.35,6.6.2,4.61.53,9.2,1.16,13.77a.075.075,0,0,0,.01.05v.01a.3.3,0,0,0,.05.13.138.138,0,0,0,.03.04c.02.02.04.05.07.06a.262.262,0,0,0,.08.03c.02.01.03.03.06.03a13.477,13.477,0,0,0,1.52.2c-.05,2.93.67,5.8.75,8.73.01.42.67.42.65,0-.11-2.92-.68-5.8-1.08-8.7a14.557,14.557,0,0,0,3.84-.25c.18,3.04.29,6.07.21,9.1a.17.17,0,0,0,.08.16.228.228,0,0,0,.06.12,1.386,1.386,0,0,0-1.04-.25,2.18,2.18,0,0,0-1.47.85.152.152,0,0,0-.21.11,3.155,3.155,0,0,0-.06.61l-.08-.06-.09-.1-.02-.02-.02-.03-.05-.07-.01-.01-.02-.03-.15-.24c-.04-.1-.07-.16-.1-.24-.04-.1-.07-.2-.1-.29l-.1-.2-.15-.07-.11.03-.12.14v.21c.01.13.02.25.04.38a2.4,2.4,0,0,0,.17.65,1.627,1.627,0,0,0,.39.54,1.791,1.791,0,0,0,.28.2.608.608,0,0,0,.45.12c.11.28.23.55.35.81.36.8.72,1.6,1.1,2.39a2.575,2.575,0,0,0,1.38,1.46c.44.13,1.63.02,1.46-.69a.3.3,0,0,0-.27-.21c-.24-.01-.37.21-.59.25a1.006,1.006,0,0,1-.65-.16,3.723,3.723,0,0,1-.96-1.46c-.31-.63-.61-1.26-.91-1.9-.15-.32-.31-.64-.43-.97-.08-.23-.16-.45-.22-.68-.05-.38.51-.61.8-.69a1.345,1.345,0,0,1,.84-.04.94.94,0,0,1,.49.64c.13.36.25.72.38,1.07a21.792,21.792,0,0,0,.88,2.05c.16.33.32.66.5.98.09.17.19.35.29.53s.23.32.03.47a.241.241,0,0,0,.06.43c.42.16.68-.37.61-.72a2.731,2.731,0,0,0-.32-.72c-.12-.23-.23-.46-.35-.69a27.056,27.056,0,0,1-1.25-3.07,3.093,3.093,0,0,0-.57-1.23.19.19,0,0,0,.09.03c.43.09.54.58.66.94.14.43.29.85.46,1.26a18.831,18.831,0,0,0,1.4,2.67,21.58,21.58,0,0,0,1.7,2.32c.44.52,1.86,1.83.7,2.35a8.208,8.208,0,0,1-2.69.54,4.444,4.444,0,0,1-2.49-.42,5.556,5.556,0,0,1-1.69-1.94,4.547,4.547,0,0,0-1.66-1.57c-.52-.28-.94-.52-1.12-1.11a7.254,7.254,0,0,1-.16-1.68,14.043,14.043,0,0,1,.01-1.59c.01-.25.22-2.11.7-2,.15.04.26-.18.11-.26-1.66-.77-1.5,4.74-1.38,5.47a2.085,2.085,0,0,0,.67,1.29c.42.36.96.51,1.39.85.84.67,1.21,1.77,1.96,2.53,1.56,1.61,4,1.23,5.96.76a2.11,2.11,0,0,0,1.28-.65,1.5,1.5,0,0,0,.18-1.33,3.171,3.171,0,0,0-.75-1.17c-.43-.49-.85-.98-1.24-1.51a19.18,19.18,0,0,1-2.19-3.74c-.38-.85-.55-2.52-1.7-2.64a50.817,50.817,0,0,0-.07-8.98c.21-.05.42-.08.63-.14a.408.408,0,0,0,.3-.39c-.33-6.69-.21-13.36-.03-20.04.18-6.5.53-13.13-.16-19.61.07-.02.14-.03.22-.05.07.93.15,1.87.22,2.8.03.44.71.45.71.04.12.02.24.03.36.05a3.363,3.363,0,0,0,.18,1.29,3.148,3.148,0,0,0,.41.82,2.357,2.357,0,0,0,.7.67c.02.01.05,0,.07.01.01.23.01.45.02.67a.274.274,0,0,0,.26.27,1.747,1.747,0,0,0,1.65-2,.229.229,0,0,0-.28-.17.244.244,0,0,0-.17.29,1.265,1.265,0,0,1-.93,1.32c0-.53.02-1.06,0-1.58s-.04-1.02-.06-1.52a8.524,8.524,0,0,0,1.13-.15,9.726,9.726,0,0,0,1.2-.35c.04,1.07.06,2.14.13,3.21a2.568,2.568,0,0,1-.8,2.54,6.087,6.087,0,0,1-2.25.92c-.48.11-.77.02-.83-.47a3.753,3.753,0,0,1,.06-1.11.154.154,0,0,0-.28-.12c-.39.65-.69,1.76.12,2.24a2.129,2.129,0,0,0,1.64-.09,7.554,7.554,0,0,0,1.39-.54,2.806,2.806,0,0,0,1.62-2.45,15.872,15.872,0,0,0-.14-2.07c-.08-.74-.15-1.48-.22-2.22a12.429,12.429,0,0,0,1.32-.65.412.412,0,0,0,.42-.25.076.076,0,0,0,.04-.02A.471.471,0,0,0,584.86,293.91Zm-28.4,2.96a6.551,6.551,0,0,0,.74.1.17.17,0,0,1-.01.07,2.913,2.913,0,0,0-.01.78,4.062,4.062,0,0,1,.1,1.47.7.7,0,0,1-.64.61.321.321,0,0,1-.28-.09,1.323,1.323,0,0,1-.09-.71c-.01-.65-.01-1.31-.02-1.96A.514.514,0,0,0,556.46,296.87Zm-2.18.06c.57.11,1.15.17,1.58.27-.06.64-.13,1.29-.2,1.93a1.506,1.506,0,0,0,.11.94.882.882,0,0,0,.55.43.785.785,0,0,0,.22.02c.06.09.13.18.19.27a4.868,4.868,0,0,1,.33.54,3.766,3.766,0,0,1,.28.88c-.12-.03-.23-.05-.34-.08a3.645,3.645,0,0,1-.82-.34,4.259,4.259,0,0,1-1.4-1.27A4.436,4.436,0,0,1,554.28,296.93Zm17.99-39.97a7.407,7.407,0,0,0,1.37.72,96.394,96.394,0,0,1-1.83,11.07,59.639,59.639,0,0,1-3.41,9.81c-.03-1.4-.08-2.8-.15-4.19a.549.549,0,0,0,.22-.27,81.539,81.539,0,0,0,2.1-8.42c.53-2.53.94-5.05,1.24-7.61a3.779,3.779,0,0,0,.26-.43A2.364,2.364,0,0,0,572.27,256.96Zm-4.15,2.84a5.024,5.024,0,0,0,3.05-1c.02-.01.03-.03.04-.04-.48,2.28-.97,4.57-1.5,6.84-.58,2.44-1.27,4.83-1.91,7.25-1.24-4.77-3-9.4-3.82-14.26A6.91,6.91,0,0,0,568.12,259.8Zm-3.47-3.28a.327.327,0,0,0,.36-.31,5.813,5.813,0,0,0-.15-1.86c-.05-.24-.12-.48-.19-.71.09.11.2.22.29.33.25.31.71-.09.54-.42-.99-1.88-3.51-3.3-3.58-5.6a.424.424,0,0,0-.52-.4,1.55,1.55,0,0,1-1.98-1.39,1.141,1.141,0,0,1,1.88-.9c.26.2.63-.08.63-.36v-.15a.425.425,0,0,0,.28-.45,27.961,27.961,0,0,1-.07-6.4,10.207,10.207,0,0,0,1.26.68,4.86,4.86,0,0,0,.54.33,7.4,7.4,0,0,0,.99.46,1.63,1.63,0,0,0,2.02-.42,1.788,1.788,0,0,0,.28-.86c1.66,1.24,3.85,2.42,5.82,1.8-.03,1.67-.05,3.35-.04,5.02,0,.29.37.56.63.36a1.139,1.139,0,0,1,1.87.91,1.55,1.55,0,0,1-1.97,1.39.418.418,0,0,0-.53.39,6.229,6.229,0,0,1-1.76,3.39,19.26,19.26,0,0,0-2.2,2.82c-.18.32.28.72.54.41l.21-.24a2.446,2.446,0,0,0,.06.6,2.535,2.535,0,0,0,.61,1.14,2.087,2.087,0,0,0,.96.56,2.992,2.992,0,0,1-1.2,1.55,5.161,5.161,0,0,1-2.11.62c-.13.01-.26.02-.39.02a6.061,6.061,0,0,1-3.96-1.41A1.834,1.834,0,0,0,564.65,256.52Zm3.02,22.09a43.07,43.07,0,0,1-3.75-9.37q-.855-2.625-1.54-5.3c-.45-1.75-.74-3.6-1.35-5.31.62-.32,1.27-.62,1.94-.9.15.15.3.3.47.44.33,5.72,2.76,11.07,4,16.62a.341.341,0,0,0,.35.29C567.73,276.26,567.69,277.43,567.67,278.61Zm-9.7,65.63v-.02c.13,0,.26.01.39.02a8.736,8.736,0,0,1,.87.14,3.035,3.035,0,0,1,1.41.86.348.348,0,0,0,.15.07,2.919,2.919,0,0,0-.24.37c-.13.22-.25.44-.38.66q-.39.66-.81,1.32c-.26.43-.54.84-.81,1.27s-.49.86-.74,1.29a2.955,2.955,0,0,0-1.53-.46c-.03,0-.06.01-.09.01a17.893,17.893,0,0,0,1.01-2.35A17.343,17.343,0,0,0,557.97,344.24Zm4.55,1.19a4.413,4.413,0,0,1-.01.63c0,.1-.02.21-.02.32a.592.592,0,0,0,.13.32,4.584,4.584,0,0,1-.36,2,17.114,17.114,0,0,1-1.62,2.25c-.47.73-.61,1.63-1.1,2.36a3.61,3.61,0,0,1-2.23,1.41,6,6,0,0,1-3-.23c-.26-.08-.52-.16-.77-.26a.707.707,0,0,1-.44-.9,4.877,4.877,0,0,1,.6-1.41,22.527,22.527,0,0,0,2.45-5.06,10.459,10.459,0,0,0,.35-2.49,2,2,0,0,1,1.26-2.02c.04-.02.05-.05.07-.08,0,.04-.01.08-.01.12a5.157,5.157,0,0,0-.06,1.36h-.02l-.06-.03a.42.42,0,0,0-.52.3c-.16,1.06-.4,2.1-.65,3.15-.22.91-.54,1.79-.81,2.69a.834.834,0,0,0-.15.04.24.24,0,0,0,.06.47h.02a.15.15,0,0,0,.17,0c.14.01.28.01.42.02a3.939,3.939,0,0,1,.58.11,2.364,2.364,0,0,1,.96.6.387.387,0,0,0,.53,0,.377.377,0,0,0,0-.53c-.07-.06-.15-.1-.22-.16.33-.36.67-.71.97-1.1s.6-.83.89-1.26c.29-.41.57-.83.84-1.25.15-.22.29-.45.44-.67a.218.218,0,0,1,.03-.05,1.26,1.26,0,0,0,.93-.74c.1-.16.19-.32.29-.47l.01.08.01.02.01.14C562.5,345.21,562.51,345.32,562.52,345.43Zm-.11-5.85c-.12.87-.24,1.73-.35,2.6-.06.49-.11.98-.16,1.47a1.847,1.847,0,0,1-.32,1.22l-.07.16-.04.08c0,.02-.02.04-.03.06a.273.273,0,0,0-.12-.09.455.455,0,0,0-.1-.41,3.827,3.827,0,0,0-1.82-1.01,2.822,2.822,0,0,0-.96-.08,8.205,8.205,0,0,0,.11-1.01c.04-.48.09-.96.13-1.45.08-.85.15-1.71.22-2.56.07-.82.11-1.64.14-2.46.01-.43.02-.87.03-1.3a4.452,4.452,0,0,0-.04-.97,14.5,14.5,0,0,0,4.2.33C562.98,335.97,562.67,337.77,562.41,339.58Zm14.07-26.56c-.22,6.58-.34,13.14-.05,19.71a13.7,13.7,0,0,1-5.84.23c-.58-4.55-.89-9.12-1.1-13.71-.09-2.14-.19-4.29-.33-6.43a35.841,35.841,0,0,0-.74-6.57,5.025,5.025,0,0,0,.07-.87c.03-.51.05-1.01.07-1.52.04-.94.07-1.88.08-2.82s.01-1.88-.03-2.82a8.441,8.441,0,0,0-.31-2.84h-.15a9.99,9.99,0,0,0-.24,2.84c-.03.94-.06,1.88-.08,2.82s-.05,1.88-.08,2.82c-.02.51-.05,1.01-.07,1.52a6.03,6.03,0,0,0-.03.73,38.252,38.252,0,0,0-.9,6.54c-.23,2.23-.44,4.46-.66,6.7-.45,4.61-.95,9.21-1.56,13.81a13.863,13.863,0,0,1-5.84-.25c.32-6.6.4-13.2.42-19.81.02-6.55.34-13.12.26-19.67a3.187,3.187,0,0,0,1.02.35,37.1,37.1,0,0,0,5.66.7,38.736,38.736,0,0,0,10.63-.96C576.58,300.02,576.69,306.52,576.48,313.02Zm3.47-15.17c-.01.14,0,.29,0,.43a3.2,3.2,0,0,1-.78-1.96,7.3,7.3,0,0,0,.81.02C579.97,296.84,579.96,297.35,579.95,297.85Zm-.79-2.18a.24.24,0,0,0-.16-.15.28.28,0,0,0-.33.17c-.16,0-.32-.01-.48-.02-.08-.84-.17-1.69-.25-2.53a.474.474,0,0,0-.07-.66c-.01-.11-.02-.22-.03-.34q-.345-6.4-.69-12.82c-.13-2.24-.25-4.47-.37-6.71a36.939,36.939,0,0,0-.61-6.48c-.02-.11-.17-.08-.18.02a41.488,41.488,0,0,0,.08,6.96c.11,2.15.21,4.3.32,6.46l.63,12.93a37.759,37.759,0,0,1-8.65,1.16c.02-4.56.12-9.15.06-13.72.01-.02.03-.03.04-.05a62.08,62.08,0,0,0,3.87-10.99,45.383,45.383,0,0,0,1.55-11.11,12.012,12.012,0,0,1,2.21,1.02,7.589,7.589,0,0,1,3.16,4.26,47.923,47.923,0,0,1,1.72,10.45c.66,6.94,1.89,13.83,3.17,20.67A10.777,10.777,0,0,1,579.16,295.67Z" fill="#372b7b"/><path d="M563.98,258.59a70.8,70.8,0,0,0,2.22,8.71,40.273,40.273,0,0,0,1.72-7.51A6.956,6.956,0,0,1,563.98,258.59Z" fill="#e1e1ff"/><path d="M571.17,258.8a5.024,5.024,0,0,1-3.05,1c-.07,0-.13-.01-.2-.01a41.084,41.084,0,0,1-1.72,7.51c.56,1.84,1.12,3.68,1.6,5.55.64-2.42,1.33-4.81,1.91-7.25.53-2.27,1.02-4.56,1.5-6.84C571.2,258.77,571.19,258.79,571.17,258.8Z" fill="#b7b7ff"/><path d="M565.61,241.24a.344.344,0,0,0-.34-.34,3.879,3.879,0,0,0-1.37.37.3.3,0,0,0,.23.54,3.087,3.087,0,0,1,.59-.18l.15-.03h.01l.07-.01c.11-.01.21-.02.32-.02A.329.329,0,0,0,565.61,241.24Z" fill="#372b7b"/><path d="M569.92,241.83l.43.03c.14.01.29.03.43.03a.43.43,0,0,0,.28-.11.369.369,0,0,0,.11-.28.4.4,0,0,0-.39-.39c-.14,0-.29.02-.43.03l-.43.03-.23.1-.1.23.1.23A.373.373,0,0,0,569.92,241.83Z" fill="#372b7b"/><path d="M568.07,254.18l-.22.04h-.03l-.19.03-.19.03h0l-.06.01-.1.01a2.721,2.721,0,0,1-.81-.06.263.263,0,0,0-.3.14.253.253,0,0,0,.1.31,3.367,3.367,0,0,0,.99.26,3.54,3.54,0,0,0,.46.02,2.379,2.379,0,0,0,.53-.11.364.364,0,0,0,.25-.44A.351.351,0,0,0,568.07,254.18Z" fill="#372b7b"/><path d="M563.63,286.14a19.454,19.454,0,0,0,2.02-.04.366.366,0,0,0,.35-.26v-.19a.354.354,0,0,0-.35-.26c-.67.01-1.35-.02-2.02.01s-1.35.02-2.02.01c-.37-.01-.35.52,0,.56C562.28,286.04,562.96,286.1,563.63,286.14Z" fill="#372b7b"/><path d="M574.58,284.9a2.22,2.22,0,0,0-.61.17c-.36.1-.73.21-1.09.3a7.852,7.852,0,0,1-1.08.18c-.2.02-.41.02-.61.06s-.37.06-.56.08a.22.22,0,0,0-.06.43,4.109,4.109,0,0,0,1.15.22,7.958,7.958,0,0,0,1.09-.05,5.4,5.4,0,0,0,1.2-.22c.2-.07.4-.15.59-.23.23-.1.42-.21.43-.5A.446.446,0,0,0,574.58,284.9Z" fill="#372b7b"/><path d="M563.97,233.21a8.373,8.373,0,0,1,2.69-.07,8.162,8.162,0,0,1,1.28.29c.44.14.85.34,1.28.49.49.17.76-.56.34-.81a6.569,6.569,0,0,0-2.85-.75,8.1,8.1,0,0,0-2.89.33A.271.271,0,0,0,563.97,233.21Z" fill="#fff"/><path d="M572.03,234.89l.11-.07.16-.16.06-.23-.06-.23-.16-.16-.11-.07a.5.5,0,0,0-.27-.07.519.519,0,0,0-.27.07.529.529,0,0,0-.26.46.541.541,0,0,0,.26.46.556.556,0,0,0,.54,0Z" fill="#fff"/></g><g transform="translate(121.27 1061.662)"><rect width="14.2" height="1" transform="translate(504.04 343.58)" fill="#372b7b"/></g><path d="M505.29,346.58v-4.5l-5.25,2.25Z" transform="translate(121.27 1061.662)" fill="#372b7b"/><g transform="translate(121.27 1061.662)"><rect width="13.2" height="1" transform="translate(535.73 343.58)" fill="#372b7b"/></g><path d="M547.68,346.58v-4.5l5.25,2.25Z" transform="translate(121.27 1061.662)" fill="#372b7b"/><text transform="translate(640.754 1409.737)" fill="#372b7b" font-size="13.81" font-family="Helvetica"><tspan x="0" y="0">6ft</tspan></text></g></svg>