<svg xmlns="http://www.w3.org/2000/svg" width="87.521" height="80.766" viewBox="0 0 87.521 80.766"><g transform="translate(-652.041 -355.19)"><g transform="translate(708.99 405.384)"><path d="M723.072,406.122a15.286,15.286,0,1,1-15.3-15.272A15.282,15.282,0,0,1,723.072,406.122Z" transform="translate(-692.5 -390.85)" fill="#503caa"/><path d="M706.733,402.3a3.61,3.61,0,1,1-3.6,3.617A3.622,3.622,0,0,1,706.733,402.3Z" transform="translate(-688.168 -386.183)" fill="#816ae6"/><path d="M701.241,394.31a5.4,5.4,0,1,1-5.391,5.405A5.394,5.394,0,0,1,701.241,394.31Z" transform="translate(-691.135 -389.44)" fill="#816ae6"/><path d="M700.331,404.1a2.351,2.351,0,1,1-2.351,2.351A2.346,2.346,0,0,1,700.331,404.1Z" transform="translate(-690.266 -385.45)" fill="#816ae6"/></g><g transform="translate(652.041 355.19)"><path d="M706.248,390.982a5.725,5.725,0,0,0-.7,2.576c-1.126-.1-2.252-.183-3.392-.239a21.1,21.1,0,0,1-13.386,11.852c-.028,1.492-.07,2.97-.155,4.462h-.042a3.027,3.027,0,0,0-1.422.338c-.324-1.408-.661-2.815-1.013-4.209a20.9,20.9,0,0,1-14.92-3.237c-.563.408-1.112.788-1.689,1.182a2.355,2.355,0,0,0-1.168-1.013,17.9,17.9,0,0,0,1.07-1.478,20.967,20.967,0,0,1-7.418-13.2c-1.084-.127-2.2-.239-3.308-.352a3.425,3.425,0,0,0,.268-.619,4.957,4.957,0,0,0,.141-2.632c.915-.253,1.8-.507,2.717-.746a20.8,20.8,0,0,1,2.745-9.135c-.943-1.281-1.943-2.562-2.956-3.829a2.073,2.073,0,0,0,1.168-.985c1.112.816,2.252,1.619,3.364,2.449a21.044,21.044,0,0,1,16.68-8.234,21.409,21.409,0,0,1,4.786.549c.436-.971.859-1.942,1.267-2.928a5.167,5.167,0,0,0,2.463,1.14c-.169.943-.31,1.9-.45,2.843A20.96,20.96,0,0,1,702.109,376.5c.676-.239,1.351-.479,2.027-.746a4.183,4.183,0,0,0,1.14,1.675c-.774.422-1.548.873-2.323,1.295a21.121,21.121,0,0,1,.282,11.486C704.235,390.49,705.248,390.743,706.248,390.982Z" transform="translate(-649.327 -352.598)" fill="#503caa"/><path d="M691.993,385.967a5.551,5.551,0,0,1,.7-2.576,6,6,0,1,1-.7,2.829A.766.766,0,0,1,691.993,385.967Z" transform="translate(-635.762 -344.993)" fill="#816ae6"/><path d="M691.053,373.256a4.229,4.229,0,0,1-.253-1.408,4.138,4.138,0,1,1,4.138,4.138,4.1,4.1,0,0,1-2.745-1.042A4.284,4.284,0,0,1,691.053,373.256Z" transform="translate(-636.244 -350.087)" fill="#816ae6"/><path d="M683.121,365.282a5.136,5.136,0,1,1,.83.056A3.98,3.98,0,0,1,683.121,365.282Z" transform="translate(-641.106 -355.19)" fill="#816ae6"/><path d="M681.424,380.22a3.385,3.385,0,1,1-3.364,3.392A3.391,3.391,0,0,1,681.424,380.22Z" transform="translate(-641.437 -344.989)" fill="#816ae6"/><path d="M680.9,395.71a3.206,3.206,0,1,1-1.464.338,3.026,3.026,0,0,1,1.422-.338Z" transform="translate(-641.6 -338.675)" fill="#816ae6"/><path d="M672.8,369.96a8.685,8.685,0,1,1-8.685,8.685A8.668,8.668,0,0,1,672.8,369.96Z" transform="translate(-647.118 -349.17)" fill="#816ae6"/><path d="M673.533,385.54a2.766,2.766,0,1,1-2.773,2.773A2.757,2.757,0,0,1,673.533,385.54Z" transform="translate(-644.412 -342.82)" fill="#816ae6"/><path d="M666.585,390.841a2.618,2.618,0,0,1,1.563,2.337,2.534,2.534,0,1,1-2.534-2.548A2.5,2.5,0,0,1,666.585,390.841Z" transform="translate(-647.542 -340.746)" fill="#816ae6"/><path d="M662.77,368.279a2.029,2.029,0,0,1-1.168.985,1.952,1.952,0,0,1-.7.127,2.161,2.161,0,1,1,2.154-2.154A2.025,2.025,0,0,1,662.77,368.279Z" transform="translate(-649.315 -351.163)" fill="#816ae6"/><path d="M661.836,378.919a4.957,4.957,0,0,1-.141,2.632,4.091,4.091,0,0,1-.267.619,4.945,4.945,0,1,1,.408-3.251Z" transform="translate(-652.041 -347.107)" fill="#816ae6"/></g><g transform="translate(669.198 419.811)"><path d="M678.686,408.321a7.228,7.228,0,1,1-7.235-7.221A7.221,7.221,0,0,1,678.686,408.321Z" transform="translate(-664.23 -401.1)" fill="#503caa"/><path d="M670.967,406.51a1.7,1.7,0,1,1-1.717,1.7A1.7,1.7,0,0,1,670.967,406.51Z" transform="translate(-662.184 -398.895)" fill="#816ae6"/><path d="M668.358,402.73a2.555,2.555,0,1,1-2.548,2.562A2.568,2.568,0,0,1,668.358,402.73Z" transform="translate(-663.586 -400.436)" fill="#816ae6"/><path d="M667.932,407.36a1.112,1.112,0,1,1-1.112,1.112A1.105,1.105,0,0,1,667.932,407.36Z" transform="translate(-663.174 -398.549)" fill="#816ae6"/></g></g></svg>