<svg xmlns="http://www.w3.org/2000/svg" xmlns:xlink="http://www.w3.org/1999/xlink" width="148.35" height="148.35" viewBox="0 0 148.35 148.35"><defs><clipPath id="a"><circle cx="64.5" cy="64.5" r="64.5" transform="matrix(0.163, -0.987, 0.987, 0.163, 604.866, 349.597)"/></clipPath></defs><g transform="translate(-947.136 -1283)"><circle cx="64.5" cy="64.5" r="64.5" transform="matrix(0.163, -0.987, 0.987, 0.163, 947.136, 1410.258)" fill="#64e5f9"/><g transform="translate(342.27 1060.662)"><g clip-path="url(#a)"><path d="M702.62,241.08c0,.11,0,.23.01.33C702.77,241.36,702.74,241.14,702.62,241.08Z" fill="#77f"/><path d="M717.88,248.78a6.406,6.406,0,0,0-.18-2.05,2.45,2.45,0,0,0-1.25-1.57,49.938,49.938,0,0,1-5.94.84c.15-.45-.24-.82-.31-1.29a6.205,6.205,0,0,0-1.29-.13c-.01-.09-.01-.18-.02-.27-.05-.77-.42-1.35-.46-2.12a1.37,1.37,0,0,0-.3-.93,1.156,1.156,0,0,0-.59-.25,5.087,5.087,0,0,0-2.02.02,7.325,7.325,0,0,0-.18-1.17h-2.65q-.06.615-.06,1.2c.12.06.14.28.01.33-.01-.11-.01-.22-.01-.33-.02-.01-.03-.02-.05-.03a17.57,17.57,0,0,0-2.94.58,1,1,0,0,0-.64.33,1.039,1.039,0,0,0-.11.72c.04.51.08,1.03.12,1.54a13.151,13.151,0,0,0-2.43.01.256.256,0,0,0-.19.06.251.251,0,0,0-.05.19,2.145,2.145,0,0,0,.37,1.14l.01.01.26.03c.01.12-.18.07-.26-.03-2.98-.32-6.32-.56-8.89.94a11.747,11.747,0,0,0-2.67,2.31,7.561,7.561,0,0,0-1.87,2.98,8.822,8.822,0,0,0-.02,3.32l-.69.81a2.222,2.222,0,0,0-.83,1.29,1.507,1.507,0,0,0,.72,1.32,4.01,4.01,0,0,0,1.48.51,12.131,12.131,0,0,0,6.55-.26,2.074,2.074,0,0,0,1.18-.88,1.2,1.2,0,0,0-.06-1.16,1.219,1.219,0,0,0-1.03-.54,2.753,2.753,0,0,1,.48-1.99,3.618,3.618,0,0,1,1.54-1.06,10.682,10.682,0,0,1,4.68-.33c-.15.13.16.42.29.57a.921.921,0,0,0,.53.26,8.876,8.876,0,0,0,3.32-.18,30.046,30.046,0,0,1,7.46-.28,2.627,2.627,0,0,0,1.5-.15.878.878,0,0,0,.35-1.28c1.94-.23,3.58-.5,5.52-.73a4.2,4.2,0,0,1,1.37-.01c.02.01.05.01.07.03C718.16,250.42,717.86,249.63,717.88,248.78Z" fill="#77f"/><path d="M696.98,245.65l-.26-.03C696.79,245.72,696.98,245.77,696.98,245.65Z" fill="#77f"/><path d="M684.41,259.22a1.386,1.386,0,0,1,1.19-2.45c-.06-2.02-.08-4.19,1.07-5.85a6.739,6.739,0,0,1,2.59-2.11,11.511,11.511,0,0,1,7.3-1.03c.08-.32.16-.63.24-.95q6.93-.105,13.84-.58a4.606,4.606,0,0,1-.14,2.6l-13.96.12c-.08.5-.16.99-.25,1.49a16.512,16.512,0,0,0-4.49-.16,5.638,5.638,0,0,0-3.85,2.1,7.8,7.8,0,0,0-1.12,4.12.978.978,0,0,1,.92-.14,10.946,10.946,0,0,1-.13,2.56Z" fill="#e1e1ff"/><path d="M677.23,295.88c.06-2.83-.88-3.34-1.95-3.46-2.33-2.08-2.77-3.4-.94-4.47s4.09.88,3.97.63-2.58-2.52-1.64-3.97,7.55,2.83,7.55,2.83-.76-19.52-.94-22.54-.69-6.17-.69-6.17a49.406,49.406,0,0,0,5.1.57,13.126,13.126,0,0,0,2.9-.13l1.38,24.43s2.58-5.23,5.41-4.85,1.26,3.27,1.26,3.27,1.57-2.9,4.41-1.64-.5,6.11-.5,6.11-2.64-2.27-4.97-.44c-1.01-2.46-5.29-3.34-7.24-.82a5.485,5.485,0,0,0-.94,5.1s-2.39-.06-2.58,1.32c-2.27-.31-4.28-.13-5.41,4.47A4.293,4.293,0,0,0,677.23,295.88Z" fill="#77f"/><path d="M692.9,282.84a5.841,5.841,0,0,1,1.74-1.76,1.351,1.351,0,0,1,1.25-.26c.54.25.58.99.7,1.57a2.087,2.087,0,0,0,.61,1.15,1.217,1.217,0,0,0,1.23.25c.48-.21.71-.76.94-1.23a7.065,7.065,0,0,1,1.65-2.18,2,2,0,0,1,1.42-.63c.85.08,1.32,1.06,1.33,1.91a7.56,7.56,0,0,1-1.6,3.99,2.971,2.971,0,0,1-.04-1.33c.02-.45-.16-.99-.61-1.07a1.1,1.1,0,0,0-.87.4,8.265,8.265,0,0,1-2.85,2.2,1.574,1.574,0,0,1-.91.05,2.23,2.23,0,0,1-.97-.86,4.249,4.249,0,0,0-1.38-1.19,2.136,2.136,0,0,0-1.78-.1,6.654,6.654,0,0,1-.76.23Z" fill="#e1e1ff"/><path d="M687.28,259.43c0,.28.19,15.86.76,13.79s.76-14.26.76-14.26Z" fill="#e1e1ff"/><path d="M684.65,259.69s1.12,18.06,1.31,22.78,1.42-2.74,1.61-5.85.76,13.79.76,13.79a2.228,2.228,0,0,0-1.89,1.7l-1.7-.28-2.1-32.51Z" fill="#e1e1ff"/><path d="M661.56,311.8a90.02,90.02,0,0,0,11.71-5.16c4.03-2.39,19.14-13.35,21.66-14.98s5.04-3.15,6.67-1.51.13,3.4-1.64,5.04-13.35,12.09-13.35,12.09,6.17-3.65,9.95-5.79,10.2-6.55,11.58-7.3,1.26-.57,1.26-.57.13-2.14-1.76-1.83-3.02.5-3.02.5.31-8.81-7.05-6.23c-1.95-3.65-6.04-2.2-7.18-.57a12.241,12.241,0,0,0-1.39,4.78,3.368,3.368,0,0,0-2.2,1.38c-1.26-.13-4.22,1.07-4.78,2.39a3.989,3.989,0,0,0-.5,1.76s-3.34-.76-4.28.06c-.57,3.15-4.66,6.92-8.5,8.56C664.9,306.08,661.5,311.11,661.56,311.8Z" fill="#fff"/><path d="M688.94,317.47s7.66-4.54,14.92-8.88,8-5.29,8.06-5.48.13-3.21-1.83-3.27c-6.55,5.35-22.47,17.75-22.47,17.75Z" fill="#e1e1ff"/><path d="M701.22,293.86c.13-.19,4.78-2.08,6.42-2.08a1.575,1.575,0,0,1,1.76,1.32s-11.96,7.74-13.22,8.69a81.9,81.9,0,0,1-8.75,4.85C687.5,306.39,701.22,293.86,701.22,293.86Z" fill="#e1e1ff"/><path d="M676.48,297.51a5.51,5.51,0,0,1,4.97.94c.31-2.58,5.23-3.71,5.23-3.71-.06-2.14,4.22-2.33,4.22-2.33.5-5.23,4.85-6.3,5.98-4.85-2.01,2.14-2.01,2.58-2.01,2.58s2.64-2.96,5.48-2.27,4.53,3.08,4.41,3.9-.38.82-.38.82l-2.46.76s1.26-2.64-1.07-3.59-3.08.57-6.36,2.58-17,11.33-18.26,12.15-7.11,5.1-9.13,5.79-5.79,2.14-5.79,2.14a9.686,9.686,0,0,1,3.78-5.23c2.9-1.83,8.94-4.53,9.82-5.98A19.409,19.409,0,0,0,676.48,297.51Z" fill="#e1e1ff"/><path d="M623.61,333.17c17.3-10.16,23.72-21.62,27.12-25.9s16.49-9.07,18.76-10.95a20.8,20.8,0,0,1,6.55-3.65c.88-.13,2.39.63,1.51,3.4s-5.29,7.43-9.32,9.44-6.42,3.78-6.92,6.92a86.053,86.053,0,0,0,16.75-9.32c3.65-2.77,14.48-8.94,16.24-11.08s6.8-3.9,7.81-2.01-.76,5.16-5.67,8.44a61.3,61.3,0,0,0-9.82,8.81s8.18-4.03,10.95-6.17,11.23-9.1,14.86-7.43c1.64.76-.76,5.29-2.77,6.67s-15.86,12.46-16.75,13.35-5.92,4.41-5.92,4.41a61.567,61.567,0,0,0,10.95-5.29c4.91-3.15,10.32-7.93,11.96-8.81s5.54-1.39,4.41,2.14-6.8,9.44-9.95,11.71-10.95,7.81-12.97,9.19a14.249,14.249,0,0,0-2.9,2.52s5.79-2.39,8.69-4.78,8.94-5.54,10.95-5.04,1.89,1.76-.5,3.9-7.3,6.42-10.45,8.18-16.37,10.58-24.93,11.96-23.92,3.4-27.07,5.29-6.3,3.65-6.3,3.65Z" fill="#fff"/><path d="M700.59,289.77c1.26,2.9-11.33,11.33-14.1,13.09s-9.82,7.93-8.69,8.81,3.53-.88,3.53-.88,16.24-12.84,18.26-14.86C701.6,293.93,704.75,290.53,700.59,289.77Z" fill="#e1e1ff"/><path d="M710.41,293.04c1.01,1.26-1.01,3.78-4.66,6.92s-19.77,14.48-21.66,15.99-1.89,4.78,2.9,2.14,20.52-15.11,22.66-17.75S715.83,295.18,710.41,293.04Z" fill="#e1e1ff"/><path d="M712.93,303.24c.13,2.27-8.69,11.71-14.1,14.48s-13.6,9.19-14.61,10.83,2.64,1.01,6.3-1.13,14.48-9.82,16.37-11.96S716.71,306.01,712.93,303.24Z" fill="#e1e1ff"/><path d="M708.15,319.74c-.13,1.39-14.35,12.21-23.42,15.86s-27.32,3.53-35.38,4.78-23.04,10.95-23.04,10.95l6.04,4.03s16.24-9.19,24.55-9.57,19.26-.88,32.36-9.07,19.64-13.35,20.27-14.98S708.15,319.74,708.15,319.74Z" fill="#e1e1ff"/><path d="M664.08,311.17s-8.56,4.53-8.56,4.15a17.646,17.646,0,0,1,6.3-10.07c4.92-3.65,14.23-7.93,15.23-11.71.25,4.53-3.65,8.31-7.05,10.2S660.3,309.79,664.08,311.17Z" fill="#e1e1ff"/><path d="M621.14,327.54c9.95-6.17,19.39-12.72,22.41-17.88s3.9-6.8,8.06-8.94,20.23-11.37,20.88-11.04-.36,4.74-.74,4.74-13.72,5.29-17.25,9.82a146.118,146.118,0,0,1-11.21,12.84c-4.41,4.53-18.13,15.74-18.13,15.74Z" fill="#e1e1ff"/><path d="M712.54,302.35h-.17v-.01a3.681,3.681,0,0,0-.32-1.12,3.337,3.337,0,0,0-1.02-1.25,12.427,12.427,0,0,0,1.13-1.29,5.282,5.282,0,0,0,1.26-3.99c-.37-1.65-2.17-2.22-3.69-2.03-.02,0-.03.01-.05.01a.543.543,0,0,0,0-.18c-.15-.79-1-1.06-1.71-1.07a11.254,11.254,0,0,0-2.77.42c-.05.01-.1.04-.15.05a7.614,7.614,0,0,0-1.84-5.69,2.734,2.734,0,0,0,.77-.82,6.453,6.453,0,0,0,.91-1.77,3.617,3.617,0,0,0-.45-3.21,2.889,2.889,0,0,0-3.15-.92,4.475,4.475,0,0,0-1.83,1.08,3.386,3.386,0,0,0-.16-1.05,2.148,2.148,0,0,0-2.33-1.45,5.548,5.548,0,0,0-3.02,1.73,7.157,7.157,0,0,0-1.63,2.69q-.315-5.16-.62-10.32c-.12-2.02-.21-4.04-.38-6.06a27.919,27.919,0,0,0-.69-5.92c-.09-.29-.58-.34-.65,0a26.3,26.3,0,0,0-.02,5.68c.06,2.1.22,4.2.33,6.29q.33,5.985.67,11.98v.01a6.147,6.147,0,0,0-2.3,5.65,2.858,2.858,0,0,0-2.46,1.51,2.612,2.612,0,0,0-1.24-.07.776.776,0,0,0,.02-.16,60.893,60.893,0,0,1-.27-7.41q-.075-4.065-.27-8.13c-.13-2.63-.3-5.25-.51-7.88-.19-2.44-.15-5.34-1.01-7.66-.05-.13-.28-.17-.3,0a18.509,18.509,0,0,0,.04,3.72c.07,1.48.21,2.95.3,4.43q.27,4.3.39,8.62c.08,2.79.11,5.59.1,8.38,0,.54-.01,1.07-.02,1.61a16.522,16.522,0,0,0-2.66-1.87,6.731,6.731,0,0,0-3.32-1.18,1.62,1.62,0,0,0-1.57,2.03,3.248,3.248,0,0,0,.82,1.44c.1.11.21.22.32.34a4.782,4.782,0,0,0-1.68-.28,3.059,3.059,0,0,0-2.43,1.28,1.093,1.093,0,0,1-1.79.62c-3.26,1.12-6.33,3.11-9.29,4.84q-5.13,3.015-10.12,6.26c-.89.58-1.79,1.16-2.62,1.82-2.74,2.21-4.75,5.22-6.95,7.93a55.2,55.2,0,0,1-8.83,8.59c-1.71,1.35-3.47,2.61-5.25,3.86-1.52,1.08-3.51,2.04-4.69,3.49a.206.206,0,0,0,.2.34,15.241,15.241,0,0,0,3.88-2.24c1.49-.96,2.96-1.95,4.4-2.99a69.435,69.435,0,0,0,7.31-5.94,80.454,80.454,0,0,0,6.54-7.4,27.771,27.771,0,0,1,4.8-4.88,155.219,155.219,0,0,1,17.21-10.52,25.43,25.43,0,0,1,3.88-1.83c.13-.04.3-.1.46-.14a1.114,1.114,0,0,0,.14.38,4.285,4.285,0,0,1-1.97,3.42.583.583,0,0,0-.31.64c-3.31,1.83-6.89,3.13-10.14,5.09a53.08,53.08,0,0,0-8.94,6.7,62.844,62.844,0,0,0-7.45,8.91,55.872,55.872,0,0,1-8.9,9.6c-3.44,2.92-7.18,5.47-10.87,8.07-.57.4-.05,1.33.56.95,5.99-3.78,12.06-7.75,16.83-13.07,2.52-2.81,4.54-6.01,6.89-8.95a44.607,44.607,0,0,1,7.76-7.53,51.483,51.483,0,0,1,9.33-5.64,62.273,62.273,0,0,0,9.07-4.96c.8-.56,1.99-1.23,2.43.08a3.776,3.776,0,0,1-.08,2,8.212,8.212,0,0,1-1.36,2.9,16.886,16.886,0,0,1-5.11,4.16c-3.98,2.39-8.55,4.72-9.51,9.72a.762.762,0,0,0,1.47.4c-.09.28.09-.03.29-.14.22-.13.44-.27.66-.39.73-.41,1.49-.78,2.24-1.14,1.33-.63,2.69-1.21,4.01-1.87a54.786,54.786,0,0,0,5.96-3.82c2.36-1.59,4.75-3.12,7.18-4.61,2.47-1.51,4.93-3.05,7.31-4.69,2.16-1.49,4.14-3.18,6.24-4.72a8.919,8.919,0,0,1,3.35-1.69c1.62-.35,3.41.49,2.39,2.36a13.413,13.413,0,0,1-2.77,3.01q-1.56,1.485-3.2,2.9c-4.82,4.2-9.94,8.02-14.89,12.06-.68.55.29,1.5.96.96,3.54-2.85,7.77-4.69,11.66-6.98,4.28-2.51,8.15-5.65,12.34-8.31a17.62,17.62,0,0,1,3.44-1.93c.82-.29,2.44-.5,2.92.51.52,1.1-.58,2.72-1.29,3.5a51.626,51.626,0,0,1-5.41,4.7c-1.93,1.61-3.89,3.18-5.87,4.73-4.68,3.65-9.47,7.15-14.28,10.63a.727.727,0,0,0,.56,1.32c8.74-2.35,15.72-8.41,22.89-13.61a28.234,28.234,0,0,1,2.55-1.77c.8-.46,2.06-.5,2.15.68a3.873,3.873,0,0,1-.7,2.14,29.152,29.152,0,0,1-4.08,5.42,73.8,73.8,0,0,1-10.52,8.8c-3.64,2.65-8.13,4.47-10.99,8.07-.5.62.14,1.72.93,1.2a11.4,11.4,0,0,1,1.87-.79c.99-.41,1.99-.81,2.96-1.25a29.253,29.253,0,0,0,3.54-2.18c1.7-1.09,3.39-2.19,5.09-3.28a13.507,13.507,0,0,1,5.23-2.38,3.047,3.047,0,0,1,1.44.01c.71.29.45.94.01,1.44a15.79,15.79,0,0,1-2,1.65c-2.9,2.3-5.83,4.55-8.85,6.69a84.938,84.938,0,0,1-18.91,10.5,53.5,53.5,0,0,1-10.46,2.8c-3.88.61-7.83.63-11.7,1.29-8.65,1.47-17.08,5.3-24.6,9.72a.834.834,0,0,0,.84,1.44c7.35-4.31,15.53-8.02,23.97-9.49,4.3-.75,8.69-.72,12.99-1.51a55.248,55.248,0,0,0,11.17-3.35,95.338,95.338,0,0,0,19.94-11.77c1.54-1.14,3.06-2.31,4.57-3.49a35.315,35.315,0,0,0,4.29-3.49c.88-.96,1.24-2.57.12-3.51-1.18-.98-3.21-.56-4.53-.13a26.192,26.192,0,0,0-5.7,3.14c-2.11,1.37-4.19,2.8-6.34,4.1a13.921,13.921,0,0,1-1.86.91c2.64-2.05,5.77-3.59,8.42-5.53a65.012,65.012,0,0,0,11.11-9.63,21.043,21.043,0,0,0,3.97-5.93C715.1,304.92,714.63,302.53,712.54,302.35Zm-19.52-19.34a6.815,6.815,0,0,1,3.48-3.68c.79-.31,1.59-.15,1.77.75a4.59,4.59,0,0,1-.22,2.11c-.15.54.6,1.04.99.58a6.843,6.843,0,0,1,2.14-1.94,1.8,1.8,0,0,1,2.4.52,2.661,2.661,0,0,1-.06,2.41,13.276,13.276,0,0,0-1.07,1.81,4.446,4.446,0,0,0-4.8-.19,4.8,4.8,0,0,0-5.27-1.88c-.01-.09-.01-.18-.02-.27A.461.461,0,0,0,693.02,283.01Zm-19.51,8.78a2.6,2.6,0,0,0,.51.38c-.25.12-.5.25-.75.4A5.818,5.818,0,0,0,673.51,291.79Zm2.27-.08a.625.625,0,0,0-.12-.09,4.716,4.716,0,0,1-1.62-1.05,1.2,1.2,0,0,1-.07-1.56c1-1.21,2.83-.42,3.97.09a.56.56,0,0,0,.81-.62c-.13-.93-.85-1.49-1.43-2.16-.26-.31-.65-.87-.42-1.29.2-.37.73-.33,1.08-.25a10.122,10.122,0,0,1,2.75,1.23,25.763,25.763,0,0,1,2.66,1.73c-.01.62-.02,1.24-.02,1.86a2.39,2.39,0,0,0,.54,1.92,4.965,4.965,0,0,0-1.88,1.25,4.389,4.389,0,0,0-1.14,2.32,3.535,3.535,0,0,0-1.37-.16,2.369,2.369,0,0,0-1.4.51,4.114,4.114,0,0,0-.44-2.53A2.108,2.108,0,0,0,675.78,291.71Zm24.51-2.95c-2.52-.18-4.74,1.57-6.58,3.06a94.121,94.121,0,0,1-8.27,5.91c-2.72,1.74-5.5,3.39-8.23,5.11-2.75,1.74-5.42,3.7-8.28,5.26-1.56.85-3.26,1.5-4.86,2.27-.37.18-.87.38-1.38.61,1.77-3.34,5.65-5.06,8.82-7.04a16.643,16.643,0,0,0,4.94-4.32,9.986,9.986,0,0,0,1.58-3.61c.51-.02.99-.18,1.51-.17a2.4,2.4,0,0,1,1.51.59.612.612,0,0,0,1.03-.43,3.483,3.483,0,0,1,2.37-3.35,4.266,4.266,0,0,1,1.42-.14,2.734,2.734,0,0,0,.52,1.66,2.362,2.362,0,0,0-.42.28,2.189,2.189,0,0,0-.67,2.69c.25.44.91.05.68-.4a1.028,1.028,0,0,1-.01-.89,1.732,1.732,0,0,1,.62-.77,4.341,4.341,0,0,1,2.66-.41.492.492,0,0,0,.47-.36c.1-.71-.81-.63-1.23-.61a7.476,7.476,0,0,0-.94.09c-.1.02-.2.04-.31.07a1.842,1.842,0,0,1,1.91-2.91.56.56,0,0,0,.68-.68c-.4-2.03.35-4.51,2.34-5.45a3.633,3.633,0,0,1,4.82,1.71.589.589,0,0,0,.91.12c1.3-1.28,3.5-.81,4.66.44,1.28,1.36,1.5,3.35,1.42,5.16-.37.14-.72.3-1.07.47.01-.02.02-.03.02-.05C703.76,290.64,702.37,288.9,700.29,288.76Zm2.29,7.77c-2.38,1.63-4.71,3.35-7.11,4.95-1.7,1.14-3.48,2.14-5.28,3.13,2.25-1.8,4.48-3.62,6.64-5.52,1.14-1,2.25-2.02,3.34-3.08a24.967,24.967,0,0,0,1.76-1.8c.21-.12.42-.24.64-.34a12.948,12.948,0,0,1,1.45-.59.565.565,0,0,0,.95-.3,14.954,14.954,0,0,1,2.19-.46c.33-.04,1.42-.26,1.52.24a.454.454,0,0,0,.06.14,12.291,12.291,0,0,0-2.24,1.11C705.16,294.8,703.86,295.65,702.58,296.53Zm7.08,6.92c-1.07.74-2.12,1.51-3.16,2.28-2.02,1.5-4.03,3.03-6.07,4.51a59.231,59.231,0,0,1-10.46,6.31c3.39-2.48,6.76-4.98,10.07-7.57,2.29-1.79,4.56-3.61,6.78-5.48,1.13-.95,2.42-1.89,3.56-2.93a2.282,2.282,0,0,1,.41.37l.07.08.02.03.12.18.12.21.04.08.02.05a2.832,2.832,0,0,1,.14.41l.05.21.01.06.01.06v.16A8.889,8.889,0,0,0,709.66,303.45Z" fill="#372b7b"/><path d="M717.65,250.91a3.6,3.6,0,0,0-1.73-.13c-.56.01-1.11.03-1.67.04-.53.01-1.07.02-1.6.04-.45.01-.89.06-1.34.11.06-1.58.06-3.15.02-4.73a6.486,6.486,0,0,0,.77.02c.52-.02,1.03-.05,1.55-.07,1.03-.05,2.08-.05,3.1-.17a.54.54,0,0,0,.53-.53.527.527,0,0,0-.53-.53c-1.05.02-2.11.16-3.16.25-.52.05-1.03.09-1.55.14a5.836,5.836,0,0,0-.73.11l-.03-.9a.794.794,0,0,0-.78-.78c-.49.01-.97.01-1.46.01,0-.15-.01-.31-.01-.46a5.348,5.348,0,0,0-.07-.7c-.05-.41-.11-.81-.17-1.21a.333.333,0,0,0-.32-.24.341.341,0,0,0-.24.13,4.355,4.355,0,0,0-1.99-.51c-.22-.02-.45-.03-.68-.05-.01-.24-.01-.48-.02-.73a.5.5,0,0,0-.02-.12h-.81c0,.04-.02.08-.02.12-.01.23-.01.47-.02.7-.29,0-.57,0-.86.02-.12.01-.23.03-.35.04,0-.29-.01-.59-.01-.88h-.88c0,.33-.01.67-.01,1-.36.06-.72.12-1.07.2-.38.08-.76.18-1.13.29a1.793,1.793,0,0,0-.82.46c-.01-.01-.02-.02-.03-.02a.617.617,0,0,0-.67.13,1.144,1.144,0,0,0-.26.73,1.6,1.6,0,0,0,.01.38,2.488,2.488,0,0,0,.22.75c-.7.04-1.4.09-2.1.19a.386.386,0,0,0-.33.5c-.08.35-.16.69-.22,1.04a.257.257,0,0,0-.17-.11c-3.43-.59-7.41-.21-10.2,2.05a9.846,9.846,0,0,0-2.89,3.81,6.008,6.008,0,0,0-.29,4.48c-.15-.02-.29-.03-.44-.05-.67-.11-1.01.76-.55,1.08a1.847,1.847,0,0,0,1.01,2.52,6.349,6.349,0,0,0,2.03.38c.32.03.65.05.97.07a124.073,124.073,0,0,0,.55,15.3c.04.45.73.46.71,0-.24-5.06-.18-10.14.07-15.2h.02c1.32.07,2.97.38,4.13-.43.98-.68,1.54-2.28.47-3.15a.752.752,0,0,0-.36-.15,1.867,1.867,0,0,1,.68-2.33,3.309,3.309,0,0,1,1.87-.5,7.969,7.969,0,0,1,1.09.06c.17.02.34.04.51.07a1.88,1.88,0,0,0,.33.05,2.441,2.441,0,0,0,.39-.06.476.476,0,0,0,.34-.29l.03.06c-.02.02-.04.02-.06.04a.5.5,0,0,0,0,.7c.73.69,2.16.34,3.09.31l3.7-.12c2.42-.08,4.84-.15,7.26-.23a.784.784,0,0,0,.77-.77c.02-.32.03-.65.05-.97a11.734,11.734,0,0,0,1.33.12c.56.01,1.11.02,1.67.04.53.01,1.07.02,1.6.04a3.89,3.89,0,0,0,1.8-.13A.794.794,0,0,0,717.65,250.91Zm-27.75,7.4a8.017,8.017,0,0,1-2.85.07c-1.03-.04-2.07-.03-3.1-.06a2.069,2.069,0,0,1-1.22-.29c-.22-.18-.42-.59-.2-.84a.424.424,0,0,0,.1-.17,21.251,21.251,0,0,0,7.83.01c.01.02.01.05.03.07C690.8,257.6,690.38,258.14,689.9,258.31Zm6.31-5.91a1.649,1.649,0,0,0-.36-.16,1.932,1.932,0,0,0-.42-.05c-.22-.02-.45-.04-.67-.05a6.673,6.673,0,0,0-1.34.03,3.973,3.973,0,0,0-2.32.98,3.058,3.058,0,0,0-.92,2.44,25.314,25.314,0,0,1-6.5.3.5.5,0,0,0,.09-.32,11.083,11.083,0,0,1-.12-1.99,6.028,6.028,0,0,1,.54-1.95,8.756,8.756,0,0,1,2.61-3.27c2.6-2.02,5.93-2.21,9.1-2.32a.265.265,0,0,0,.19-.09,17.073,17.073,0,0,0-.2,3.04,23.032,23.032,0,0,0,.19,2.35c.05.36.09.73.16,1.1C696.24,252.42,696.23,252.41,696.21,252.4Zm3.62-9.77a.575.575,0,0,0,.05-.26v-.02a1.891,1.891,0,0,0,.58-.01c.36-.06.73-.13,1.09-.18a16.965,16.965,0,0,1,2.25-.12c.73.01,1.46.02,2.19.08a7.712,7.712,0,0,0,2.03.13c-.02.12-.03.24-.05.36-.03.23-.06.47-.07.7,0,.16-.01.32-.01.48-1.46,0-2.91-.01-4.36-.03-1.24-.02-2.47-.04-3.7,0a.749.749,0,0,0,0-.15,2.012,2.012,0,0,1-.1-.35,1.309,1.309,0,0,1,0-.28A1.784,1.784,0,0,1,699.83,242.63Zm9.87,9.74c-2.18.08-4.35.15-6.53.23-1.19.04-2.37.08-3.56.13l-1.74.06c-.08-.55-.25-1.1-.35-1.65a18.785,18.785,0,0,1-.28-2.24,32.693,32.693,0,0,1-.01-3.96c2.14.16,4.28.21,6.42.29,2.03.08,4.05.15,6.08.11C709.83,247.68,709.82,250.03,709.7,252.37Z" fill="#372b7b"/><path d="M676.88,291.77a1.776,1.776,0,0,1-1.58-1.43,1.332,1.332,0,0,1,1.33-1.49,3.355,3.355,0,0,1,1.02.39,3.734,3.734,0,0,0,1.92.31c-.05-.68-.63-1.18-1.08-1.68s-.84-1.26-.47-1.84a1.212,1.212,0,0,1,1.28-.44,3.636,3.636,0,0,1,1.28.66c.78.55,1.57,1.1,2.35,1.64-.49.26-1.08-.12-1.63-.04a1.412,1.412,0,0,0-.99,1.54,8.286,8.286,0,0,0,.57,1.92,1,1,0,0,1,.01.74c-.14.26-.47.34-.75.45s-.57.35-.51.64a.759.759,0,0,0,.31.4,2.83,2.83,0,0,1,.77.81.934.934,0,0,1-.08,1.05,1.148,1.148,0,0,1-.51.27,3.407,3.407,0,0,1-2.75-.39,3.923,3.923,0,0,0-.45-2.49Z" fill="#e1e1ff"/></g></g></g></svg>