<svg xmlns="http://www.w3.org/2000/svg" xmlns:xlink="http://www.w3.org/1999/xlink" width="129" height="129" viewBox="0 0 129 129"><defs><clipPath id="a"><circle cx="64.5" cy="64.5" r="64.5" transform="translate(617.2 398.03)"/></clipPath></defs><g transform="translate(-582.47 -1644.692)"><circle cx="64.5" cy="64.5" r="64.5" transform="translate(582.47 1644.692)" fill="#64e5f9"/><g transform="translate(-34.73 1246.662)"><g clip-path="url(#a)"><path d="M671.59,446.29c-.51-1.98-3.28-2.7-5.02-1.62a5.693,5.693,0,0,0-2.25,5.38,5.79,5.79,0,0,0,.81,2.6c1.14,1.76,3.43,2.43,5.52,2.41q.84,12.4.76,24.84a12.891,12.891,0,0,0,13.03,2.33,6.769,6.769,0,0,0,3.16-2.27c1.81-2.6-.23-8.11,2.79-9.54,1.28-.61,3.36-.12,4.77-.47a8.574,8.574,0,0,0,4.96-3.16c4.43-6.21,3.6-15.1,3.44-22.22a74.26,74.26,0,0,1,.47-10.22c.34-2.93.79-6.14-.79-8.64-2-3.16-6.3-3.74-10.03-3.94-6.17-.34-12.94-.34-17.76,3.54a13.362,13.362,0,0,0-4.89,10.85c.05.99.16,2.13-.55,2.83Z" fill="#fff"/><path d="M680.96,430.17c5.11,3.48,11.1,6.99,17.11,5.54q-.84,8.775-1.69,17.54c-5.44-.26-11.13-.48-16.08,1.79a2.386,2.386,0,0,0-1.24.98,2.546,2.546,0,0,0-.13,1.37q.5,5.685,1.34,11.34a28.462,28.462,0,0,1-5.53-.36,9.358,9.358,0,0,0,5.26,4.31,2.14,2.14,0,0,1,1.29.75,1.9,1.9,0,0,1,.13,1.16c-.3,2.95-.59,5.9-.89,8.85,2.8,1.17,6.09-.94,7.31-3.72s.93-5.95.62-8.96c3.02-.19,6.14-.56,8.74-2.11,3.19-1.91,3.45-3.51,4.34-7.12s2.52-9.28,2.43-13q-.285-11.475-.56-22.95l-1.65.21Z" fill="#e1e1ff"/><path d="M681.8,470.03c-.74-.19-.67-4.7-.35-5.36,1.26-2.55,4.69-1.06,6.98-1.4a7.185,7.185,0,0,0,3.69-1.47,7.711,7.711,0,0,0,1.94-2.94,19.884,19.884,0,0,0,1.4-5.29,7.276,7.276,0,0,0,4.01.91,3.8,3.8,0,0,1,1.96.13c.95.49,1.07,1.79,1.04,2.86a20.061,20.061,0,0,1-.79,5.93,11.09,11.09,0,0,1-8.25,7.2c-2.91.56-5.92-.09-8.88.11C684.54,470.71,681.83,470.03,681.8,470.03Z" fill="#b7b7ff"/><path d="M636.11,516.28c2.21-8.61,4.75-17.78,11.47-23.61,6.96-6.05,17.29-7.43,23.61-14.14a10.537,10.537,0,0,0,9.79,5.15c4.04-.33,7.14-3.05,8.83-6.58,2.57,3.51,7,4.13,10.99,5.04a21.516,21.516,0,0,1,11.04,6.98c6.53,7.39,7.23,17.15,13.33,24.78a42.418,42.418,0,0,1,4.66,6.14,1.45,1.45,0,0,1-.41,2.23c-3.64,2.94-8.21,4.43-12.68,5.82-15.48,4.83-32,9.33-47.69,5.23-6.93-1.81-13.32-5.22-19.63-8.6Z" fill="#77f"/><path d="M644.57,526.43q2.64-6.945,5.27-13.9a20.629,20.629,0,0,1,3.17-6.17,1.525,1.525,0,0,1,1.07-.67c.62,0,1,.65,1.24,1.22a56.2,56.2,0,0,1,4.09,17.74c.18,2.3.16,4.91-1.47,6.55-1.37,1.38-3.5,1.66-5.44,1.5a39.083,39.083,0,0,0-5.79-.53Z" fill="#6363eb"/><path d="M681.9,483.45c.34,3.1,4.32,4.27,6.04,6.87a10.16,10.16,0,0,1,1.3,4.34c1.47,11.24.58,22.64,1.14,33.96a13.837,13.837,0,0,0,1.39,6.34c4.14,1.13,8.57.42,12.67-.84s8.02-3.09,12.16-4.23c.8-.22,1.75-.54,1.97-1.34a2.5,2.5,0,0,0-.29-1.59c-2.11-5.17-2.24-10.88-2.82-16.43s-1.79-11.35-5.53-15.5c-3-3.33-7.25-5.18-11.24-7.21s-8.05-4.56-10.04-8.58a6.855,6.855,0,0,1-5.52,4.17Z" fill="#6363eb"/><path d="M664.38,435.76a23.44,23.44,0,0,0,2.24,6.82c.25.49.97,1.3.84,1.89-1.81-.09-3.12,2.79-3.32,4.21a6.327,6.327,0,0,0,2.31,5.91,4.368,4.368,0,0,0,2.26.83,21.9,21.9,0,0,1,2.09,9.45c-.04,1.42-.06,2.84-.05,4.26.01,1.68.06,3.36.14,5.04a15.651,15.651,0,0,1,.21,2.91c-.15,1.16-1.08,1.66-1.95,2.32a2.693,2.693,0,0,0-.33.26c-.09.1-.17.21-.25.31a.376.376,0,0,0-.03.47.355.355,0,0,0,.46.09c.11-.06.21-.12.32-.18a1.64,1.64,0,0,0,.32-.27c.18-.17.36-.35.54-.52.25-.25.5-.49.75-.74a10.506,10.506,0,0,0,9.79,5.75,10.9,10.9,0,0,0,9.32-6.69c.25-.6-.81-1.06-1.07-.45-.07.17-.17.33-.26.5a19.806,19.806,0,0,0-.06-3.77c-.04-.98-.13-1.93-.24-2.88,3.4.04,6.86-.37,9.71-2.4,2.9-2.07,4.33-5.37,4.91-8.8a55.815,55.815,0,0,0,.63-7.19c.07-1.8.1-3.61.19-5.41.07-1.41.13-2.82.17-4.23a10.96,10.96,0,0,1,0-1.9c.13-.51.6-.86.84-1.31a7.926,7.926,0,0,0,.53-1.92c.18-.82.31-1.66.41-2.49a18.478,18.478,0,0,0,.16-2.46,3.915,3.915,0,0,0-.48-2.52,3.837,3.837,0,0,0,1.46-1.64,10.829,10.829,0,0,0,.59-4.63,7.937,7.937,0,0,0-.37-2.08,13.058,13.058,0,0,0-5.76-7.8c-.14-.09-.29-.17-.44-.26-.03-.02-.07-.04-.1-.06q-.45-.255-.9-.48a.434.434,0,0,1-.07-.04.06.06,0,0,0-.04-.01c-5.14-2.46-11.4-1.86-16.74-.34-4.87,1.39-9.81,4.36-11.56,9.09-.06.11-.13.22-.19.33-.22.01-.44.02-.66.05a8.384,8.384,0,0,0-7.15,5.42c-.78,2.19-.26,4.58.51,6.69C664.16,435.19,664.27,435.48,664.38,435.76Zm38.52,8.4c-.15,3.51-.3,7.03-.52,10.54-1.76-.37-3.37-1.25-5.09-1.77a18.492,18.492,0,0,0-6.41-.66,29.856,29.856,0,0,0-6.27,1.16c-1.08.31-2.15.65-3.21,1.01a6.359,6.359,0,0,0-2.36,1.04c-1.33-1.68-2.65-3.37-3.92-5.09-.68-.93-1.36-1.86-2.02-2.81l-.66-.96a.584.584,0,0,0,.04-.19,63.25,63.25,0,0,0-.52-11.83,6.952,6.952,0,0,0,3.66-1.59,6.737,6.737,0,0,0,1.43-1.67,4.167,4.167,0,0,0,.43-.97,25.01,25.01,0,0,0,5.38,1.7,47.827,47.827,0,0,0,9.32,1.01c3.06.07,6.52.41,9.49-.45a8.848,8.848,0,0,0,1.15-.45A97.747,97.747,0,0,1,702.9,444.16Zm.64-12.35Zm-38.37,17.02a3.95,3.95,0,0,1,2.63-3.37,3.279,3.279,0,0,1,3.12.67c.1.19.24.37.38.58.32.5.65.99.98,1.48.68,1.01,1.37,2.02,2.08,3.01,1.39,1.94,2.83,3.83,4.37,5.65a.46.46,0,0,0,.23.15,32.434,32.434,0,0,0,.02,6.75,25.843,25.843,0,0,0,.69,3.59,57.188,57.188,0,0,1-4.57-4.51c-1.11-1.29-2.13-2.68-3.12-4.03a.947.947,0,0,1-.12-.6c.01-1.42.08-2.82.07-4.24a.49.49,0,0,0-.83-.34,2.874,2.874,0,0,1-1.79.82.465.465,0,0,0-.33.01,3.494,3.494,0,0,1-2.41-1.07A5.423,5.423,0,0,1,665.17,448.83Zm22.31,29.64a.585.585,0,0,0,.71.41,9.649,9.649,0,0,1-7.61,4.48,10.039,10.039,0,0,1-8.7-4.7c.02-.02.05-.04.06-.06a3.4,3.4,0,0,0,.18-2.1c-.03-.77-.06-1.55-.08-2.33-.03-1.1-.07-2.21-.1-3.31.05-1.93.04-3.86.04-5.76,0-1.57-.02-3.14-.02-4.71a36.642,36.642,0,0,0,7.01,7.99c-.34-.16-.68-.33-1.01-.52a.6.6,0,0,0-.61,1.04c3.02,1.83,6.78,2.27,10.24,2.38h.11c-.11.96-.2,1.91-.24,2.89A14.747,14.747,0,0,0,687.48,478.47Zm11.58-12.03a6.045,6.045,0,0,1-2.36,1.89c-4.06,1.67-8.61,1.54-12.99,1.16a3.541,3.541,0,0,1-2.24-.68,4.726,4.726,0,0,1-.74-2.04c-.31-1.17-.6-2.35-.8-3.55a27.8,27.8,0,0,1-.35-3.76,16.3,16.3,0,0,1,.18-3.37,11.976,11.976,0,0,0,1.94-.57c1-.3,2.01-.58,3.03-.83a34.037,34.037,0,0,1,6.58-1.04,16.949,16.949,0,0,1,6.4.89,34.846,34.846,0,0,0,4.59,1.54c0,.07-.01.13-.01.2C702.06,459.84,701.48,463.7,699.06,466.44Z" fill="#372b7b"/><path d="M686.46,446.39l-.19.11h0l-.11.03a1.27,1.27,0,0,0-.34.2c.19-.14.04-.04,0-.01l-.18.1h0l-.1.03-.23.05-.12.01h-.23l-.13-.01h.03l-.25-.06-.1-.03h-.01l-.21-.1-.18-.11-.03-.03-.08-.07-.07-.08-.03-.04-.12-.22a.492.492,0,0,0-.6-.2.5.5,0,0,0-.28.57,2.247,2.247,0,0,0,1.88,1.66,2.648,2.648,0,0,0,1.37-.09,1.525,1.525,0,0,0,.81-.52,1.847,1.847,0,0,0,.23-.62.513.513,0,0,0-.18-.53A.481.481,0,0,0,686.46,446.39Z" fill="#372b7b"/><path d="M684.86,446.91c.05.01.13,0,0,0Z" fill="#372b7b"/><path d="M696.88,447.31l-.03-.03c0,.01.01.01.01.02Z" fill="#372b7b"/><path d="M697.62,447.61h0Z" fill="#372b7b"/><path d="M699.05,446.37c-.13.14-.26.28-.4.41s-.23.27-.36.39l-.21.2-.01.01h0l-.12.08-.12.07-.05.03-.06.02-.1.02h-.01c-.07.02-.05.01-.01,0h-.17l-.2-.05-.08-.04-.07-.04-.15-.15-.03-.03c.01.01,0,.01-.02-.02l-.02-.02.01.01h0l-.02-.03h0l-.02-.07a.508.508,0,0,0-.97,0,1.384,1.384,0,0,0,.01.7,1.308,1.308,0,0,0,.52.68,1.95,1.95,0,0,0,1.26.37,2.443,2.443,0,0,0,1.46-.65,2.746,2.746,0,0,0,.54-.59c.12-.19.22-.4.32-.6a.586.586,0,0,0-.15-.75A.6.6,0,0,0,699.05,446.37Z" fill="#372b7b"/><path d="M684.87,440.94c.17-.05.35-.1.52-.14a1.132,1.132,0,0,0,.68-.29.593.593,0,0,0-.12-.92.771.771,0,0,0-.56-.07l-.26.08c-.18.06-.36.12-.55.19-.39.15-.78.31-1.16.5a11.067,11.067,0,0,0-2,1.3c-.42.34.14,1.06.58.75a10.569,10.569,0,0,1,1.88-1.05C684.2,441.16,684.54,441.04,684.87,440.94Z" fill="#372b7b"/><path d="M700.69,442.25a5.138,5.138,0,0,0-3.04-.71.38.38,0,0,0,0,.76,3.943,3.943,0,0,1,.61.13c.12.03.23.07.35.11l.13.05h.01l.08.04a4.356,4.356,0,0,1,.6.33l.26.19c-.13-.12.02.02.05.04l.14.12a.67.67,0,0,0,1-.07A.677.677,0,0,0,700.69,442.25Z" fill="#372b7b"/><path d="M706.5,458.06a27.016,27.016,0,0,1,3.76-1.1,4.361,4.361,0,0,0-.05,1.72c.22.94.99,1.1,1.83.91,2.15-.49,4.3-1,6.45-1.5.73-.17.42-1.29-.31-1.13l-4.77,1.05c-.38.08-.76.17-1.14.25-.19.04-.38.09-.57.13-.05.01-.22,0-.26.04a2.641,2.641,0,0,1,.04-.98,7.736,7.736,0,0,1,.25-1.16.64.64,0,0,0-.78-.78,26.472,26.472,0,0,0-4.76,1.47C705.55,457.25,705.81,458.32,706.5,458.06Z" fill="#372b7b"/><path d="M710.13,467.7a1.372,1.372,0,0,0,1.13,1.34,3.445,3.445,0,0,0,1.11-.06c.45-.06.9-.12,1.35-.17.84-.11,1.68-.21,2.52-.32a.724.724,0,1,0-.19-1.43c-1.42.19-2.84.42-4.26.57-.13.01-.3-.04-.24.08a1.625,1.625,0,0,1,.02-.62,2.748,2.748,0,0,0-.19-1.5.707.707,0,0,0-.78-.32l-1.8.39c-.27.06-.54.12-.82.18l-.1.02a.552.552,0,0,0-.39-.14.689.689,0,0,0-.48,1.11c.4.58,1.24.29,1.81.18.46-.09.92-.17,1.38-.26-.01.08-.02.17-.03.24A5.435,5.435,0,0,0,710.13,467.7Z" fill="#372b7b"/><path d="M727.05,519.09c-3.8-6.8-5.78-14.44-9.14-21.45-2.98-6.24-7.7-13.23-14.9-14.94-1.92-.46-3.9-.59-5.83-.99a12.677,12.677,0,0,1-2.83-.86,4.477,4.477,0,0,1-2.09-2.16.3.3,0,0,0-.55.05l-.14-.08-.1-.07-.01-.01-.05-.05-.19-.18-.09-.11-.01-.01-.03-.05-.14-.22-.06-.13-.01-.02.01.02-.03-.07a.373.373,0,0,0-.44-.25.364.364,0,0,0-.25.44,2.731,2.731,0,0,0,1.23,1.52.39.39,0,0,0-.19.19c-4.55,10.27-17.02,10.28-22.62,1.16a.138.138,0,0,0-.05-.08c-.07-.12-.15-.23-.21-.35-.12-.22-.5-.07-.41.17.04.12.09.22.14.34a109.931,109.931,0,0,1-10.72,5.57c-3.61,1.72-7.49,3.35-10.68,5.8a21.447,21.447,0,0,0-6.22,8.19,41.612,41.612,0,0,0-3.37,11.56c-.09.7.99.78,1.19.16,1.22-3.82,1.79-7.76,3.5-11.43a19.257,19.257,0,0,1,6.74-8.22c6.38-4.12,13.54-6.79,19.7-11.29,4.6,10.69,19.93,9.56,23.93-1.19a.387.387,0,0,0-.01-.3,4.532,4.532,0,0,0,2.51,2.15,25.1,25.1,0,0,0,5.28,1.2,18.245,18.245,0,0,1,4.73,1.19,19.024,19.024,0,0,1,4.89,3.2c5.96,5.33,8.8,13.3,11.61,20.56a86.023,86.023,0,0,0,5.08,11.5A.475.475,0,1,0,727.05,519.09Z" fill="#372b7b"/><path d="M669.11,451.57a.692.692,0,0,0,.93-.45,1.54,1.54,0,0,0,.1-.51c0-.13-.01-.26,0-.39a3.525,3.525,0,0,0-.06-.86,2.079,2.079,0,0,0-.8-1.29,1.516,1.516,0,0,0-1.33-.27,1.273,1.273,0,0,0-.81.82,1.035,1.035,0,0,0,.26,1.14c.2.17.48-.1.3-.29a.567.567,0,0,1-.08-.61.923.923,0,0,1,.19-.28.557.557,0,0,1,.27-.15.854.854,0,0,1,.73.24l.09.09.04.04.14.23.03.06v-.01l.04.12.03.14.01.07v.2l-.01.07-.01.05v-.01c-.03.11-.05.23-.08.34l-.02.07h0l-.04.06.01-.01a1.756,1.756,0,0,0-.24.42A.661.661,0,0,0,669.11,451.57Z" fill="#372b7b"/><path d="M708.06,513.07c-.74-5.26-1.22-10.58-2.14-15.82-.02-.14-.25-.11-.25.03a141.746,141.746,0,0,0,1.41,15.92q.465,3.72.99,7.43c.37,2.57.46,5.58,1.42,8a.441.441,0,0,0,.86-.12c.09-2.42-.69-5.02-1.08-7.41Q708.625,517.095,708.06,513.07Z" fill="#372b7b"/><path d="M654.97,508.01a21.621,21.621,0,0,0-.3,4.41c-.08,1.51-.18,3.02-.28,4.52q-.315,4.71-.99,9.39c-.11.76,1.06,1.09,1.17.32.42-3.1.74-6.22.94-9.35.1-1.57.15-3.13.16-4.7a17.682,17.682,0,0,0-.21-4.6A.258.258,0,0,0,654.97,508.01Z" fill="#372b7b"/><path d="M693.76,458.55c-.69-.03-1.38-.04-2.07-.04-1.41,0-2.81.06-4.22.17-.71.05-.73,1.15,0,1.13,1.38-.04,2.76-.02,4.13.04.66.03,1.32.08,1.98.12a6.16,6.16,0,0,0,2.14.02.613.613,0,0,0,.14-1.11A5.069,5.069,0,0,0,693.76,458.55Z" fill="#372b7b"/><path d="M694.57,464.18a17.59,17.59,0,0,1-8.59.11.436.436,0,0,0-.23.84,16.04,16.04,0,0,0,9.18.33A.665.665,0,0,0,694.57,464.18Z" fill="#372b7b"/><path d="M678.16,421.3a23.171,23.171,0,0,1,6.69-3.56c2.56-.81,4.95-.52,7.53-.78a1.157,1.157,0,0,0,.31-2.26c-5.28-1.82-12.08,1.39-15.5,5.35C676.64,420.68,677.38,421.88,678.16,421.3Z" fill="#fff"/><path d="M697.96,418.34a1.751,1.751,0,0,0,0-3.5A1.751,1.751,0,0,0,697.96,418.34Z" fill="#fff"/></g></g></g></svg>