<svg xmlns="http://www.w3.org/2000/svg" width="47.96" height="46.042" viewBox="0 0 47.96 46.042"><path d="M273.078,411.514a11.592,11.592,0,0,0,3.453-8.249V397.51a11.51,11.51,0,0,0-23.021,0v5.755a11.592,11.592,0,0,0,3.453,8.249C248.139,412.857,242,416.5,242,420.531v3.837a5.652,5.652,0,0,0,5.755,5.755h34.531a5.652,5.652,0,0,0,5.755-5.755v-3.837C288.041,416.5,281.711,412.857,273.078,411.514Z" transform="translate(-240.082 -384.082)" fill="#e9e8ec"/><path d="M273.078,411.514a11.592,11.592,0,0,0,3.453-8.249V397.51a11.51,11.51,0,0,0-23.021,0v5.755a11.592,11.592,0,0,0,3.453,8.249C248.139,412.857,242,416.5,242,420.531v3.837a5.652,5.652,0,0,0,5.755,5.755h34.531a5.652,5.652,0,0,0,5.755-5.755v-3.837C288.041,416.5,281.711,412.857,273.078,411.514Zm-15.731-8.249V397.51a7.674,7.674,0,0,1,15.347,0v5.755a7.674,7.674,0,0,1-15.347,0Zm26.857,21.1a1.812,1.812,0,0,1-1.918,1.918H247.755a1.812,1.812,0,0,1-1.918-1.918v-3.837c0-.384,1.151-1.918,4.412-3.261a44.995,44.995,0,0,1,29.543,0c3.261,1.343,4.412,2.878,4.412,3.261Z" transform="translate(-242 -386)" fill="#909090"/></svg>