<svg xmlns="http://www.w3.org/2000/svg" width="36.449" height="44.123" viewBox="0 0 36.449 44.123"><path d="M225.776,102.837h-2.3A5.588,5.588,0,0,0,218.1,99h-7.674a5.588,5.588,0,0,0-5.372,3.837h-2.3A5.652,5.652,0,0,0,197,108.592v26.857a5.652,5.652,0,0,0,5.755,5.755h23.021a5.652,5.652,0,0,0,5.755-5.755V108.592A5.652,5.652,0,0,0,225.776,102.837Z" transform="translate(-195.082 -97.082)" fill="#e9e8ec"/><path d="M266.266,218.347H250.918a1.918,1.918,0,0,0,0,3.837h15.347a1.918,1.918,0,0,0,0-3.837Zm0-7.674H250.918a1.918,1.918,0,0,0,0,3.837h15.347a1.918,1.918,0,0,0,0-3.837ZM256.674,203h-5.755a1.918,1.918,0,0,0,0,3.837h5.755a1.918,1.918,0,0,0,0-3.837Z" transform="translate(-241.326 -187.653)" fill="#909090"/><path d="M225.776,102.837h-2.3A5.588,5.588,0,0,0,218.1,99h-7.674a5.588,5.588,0,0,0-5.372,3.837h-2.3A5.652,5.652,0,0,0,197,108.592v26.857a5.652,5.652,0,0,0,5.755,5.755h23.021a5.652,5.652,0,0,0,5.755-5.755V108.592A5.652,5.652,0,0,0,225.776,102.837Zm-15.347,0H218.1a1.918,1.918,0,1,1,0,3.837h-7.674a1.918,1.918,0,1,1,0-3.837Zm17.266,32.613a1.812,1.812,0,0,1-1.918,1.918H202.755a1.812,1.812,0,0,1-1.918-1.918V108.592a1.812,1.812,0,0,1,1.918-1.918h2.3a5.588,5.588,0,0,0,5.372,3.837H218.1a5.588,5.588,0,0,0,5.371-3.837h2.3a1.812,1.812,0,0,1,1.918,1.918Z" transform="translate(-197 -99)" fill="#909090"/></svg>