<svg xmlns="http://www.w3.org/2000/svg" width="44.123" height="44.123" viewBox="0 0 44.123 44.123"><path d="M120.1,483a5.652,5.652,0,0,0-5.755,5.755v30.694a5.755,5.755,0,1,0,11.51,0V488.755A5.652,5.652,0,0,0,120.1,483Zm15.347,11.51a5.652,5.652,0,0,0-5.755,5.755v19.184a5.755,5.755,0,1,0,11.51,0V500.265A5.652,5.652,0,0,0,135.449,494.51Zm-30.694,11.51A5.652,5.652,0,0,0,99,511.776v7.673a5.755,5.755,0,1,0,11.51,0v-7.673A5.652,5.652,0,0,0,104.755,506.021Z" transform="translate(-97.082 -481.082)" fill="#503caa"/><path d="M120.1,483a5.652,5.652,0,0,0-5.755,5.755v30.694a5.755,5.755,0,1,0,11.51,0V488.755A5.652,5.652,0,0,0,120.1,483Zm1.918,36.449a1.918,1.918,0,1,1-3.837,0V488.755a1.918,1.918,0,1,1,3.837,0Zm13.429-24.939a5.652,5.652,0,0,0-5.755,5.755v19.184a5.755,5.755,0,1,0,11.51,0V500.265A5.652,5.652,0,0,0,135.449,494.51Zm1.918,24.939a1.918,1.918,0,1,1-3.837,0V500.265a1.918,1.918,0,0,1,3.837,0Zm-32.613-13.429A5.652,5.652,0,0,0,99,511.776v7.673a5.755,5.755,0,1,0,11.51,0v-7.673A5.652,5.652,0,0,0,104.755,506.021Zm1.918,13.429a1.918,1.918,0,1,1-3.837,0v-7.673a1.918,1.918,0,1,1,3.837,0Z" transform="translate(-99 -483)" fill="#947ef9"/></svg>