<svg xmlns="http://www.w3.org/2000/svg" width="34.578" height="34" viewBox="0 0 34.578 34"><g transform="translate(0 -4.053)"><g transform="translate(0 4.053)"><g transform="translate(0 0)"><path d="M34.569,19.608A2.973,2.973,0,0,1,32,22.848a2.738,2.738,0,0,1-2.745-1.613l-1.4.123-1.058.51a.8.8,0,0,0-.442.613,9.328,9.328,0,0,1-.533,2.06.8.8,0,0,0,.046.676l.377.674,1.048.7a1.884,1.884,0,1,1-1.19,2.019l-1.161-.779-.731-.089a.841.841,0,0,0-.684.23,9.456,9.456,0,0,1-2.07,1.5.831.831,0,0,0-.436.684l-.093,1.48.46,1.823a2.34,2.34,0,1,1-2.266.582l-.462-1.834-.713-1.146a1.044,1.044,0,0,0-.892-.489h-.006a9.449,9.449,0,0,1-1.826-.178,1.042,1.042,0,0,0-.962.3l-.942.994-1.055,2.188a1.883,1.883,0,1,1-2.114-1l1.061-2.2.208-1.478a.785.785,0,0,0-.28-.72A9.484,9.484,0,0,1,9.007,26.03a.783.783,0,0,0-.664-.375l-1.476-.014-1.616.508a2.635,2.635,0,1,1-.8-2.2l1.715-.539,1.252-.893a.645.645,0,0,0,.267-.58q-.031-.378-.031-.763a9.341,9.341,0,0,1,.855-3.913.642.642,0,0,0-.006-.549l-.371-.759-1.007-.76a1.884,1.884,0,1,1,1.3-1.95l1.116.842,1.125.2a9.421,9.421,0,0,1,2.821-1.808l.264-1.6-.333-1.657a2.7,2.7,0,0,1-2-2.017A2.639,2.639,0,0,1,13.6,4.1a2.79,2.79,0,0,1,3.286,2.059,2.562,2.562,0,0,1-1.157,2.687l.315,1.563.773,1.233a.276.276,0,0,0,.234.129h0a9.334,9.334,0,0,1,4.842,1.347.273.273,0,0,0,.255.014l1.21-.561,1.413-1.529a1.883,1.883,0,1,1,1.718,1.588l-1.413,1.529L24.617,15.4a.273.273,0,0,0,.036.255,9.349,9.349,0,0,1,1.309,2.532.8.8,0,0,0,.54.519l1.149.322,1.493-.132a2.886,2.886,0,0,1,2.4-1.967,2.812,2.812,0,0,1,3.023,2.679Z" transform="translate(0 -4.053)" fill="#eb5569"/></g></g><g transform="translate(10.092 14.215)"><g transform="translate(0 0)"><circle cx="6.959" cy="6.959" r="6.959" fill="#f58a97"/></g></g><path d="M143.537,153.422a6.961,6.961,0,0,1,5.9-6.879,6.959,6.959,0,1,0,0,13.758A6.961,6.961,0,0,1,143.537,153.422Z" transform="translate(-131.324 -132.248)" fill="#f07281"/><g transform="translate(3.36 4.559)"><circle cx="1.982" cy="1.982" r="1.982" transform="translate(0 0)" fill="#eb5569"/><circle cx="1.309" cy="1.309" r="1.309" transform="translate(0.131 26.795)" fill="#eb5569"/><circle cx="1.928" cy="1.928" r="1.928" transform="translate(23.545 28.327)" fill="#eb5569"/><circle cx="1.797" cy="1.797" r="1.797" transform="translate(9.757 12.898)" fill="#eb5569"/><circle cx="1.223" cy="1.223" r="1.223" transform="translate(11.774 19.056)" fill="#eb5569"/><circle cx="1.027" cy="1.027" r="1.027" transform="translate(15.812 15.588)" fill="#eb5569"/></g></g></svg>